<?xml version="1.0" encoding="utf-8"?>
<!-- Generator: Adobe Illustrator 16.0.0, SVG Export Plug-In . SVG Version: 6.00 Build 0)  -->
<!DOCTYPE svg PUBLIC "-//W3C//DTD SVG 1.1//EN" "http://www.w3.org/Graphics/SVG/1.1/DTD/svg11.dtd">
<svg version="1.1" id="Layer_1" xmlns="http://www.w3.org/2000/svg" xmlns:xlink="http://www.w3.org/1999/xlink" x="0px" y="0px"
	 width="370px" height="425.197px" viewBox="0 0 370 425.197" enable-background="new 0 0 370 425.197" xml:space="preserve">
<g>
	<g>
		<path d="M65.475,168.417c-0.122,0.529-0.77,0.437-1.137,0.571c-1.18,0.285-2.415,0.336-3.617,0.723
			c-0.592,1.586-1.846,2.912-3.306,3.69c-0.616,1.693-2.051,3.086-3.907,3.163c-0.943,0.222-2.022,0.083-2.976-0.135
			c-0.094-0.081-0.109-0.249-0.137-0.366c0.676-1.238,0.977-2.779,1.03-4.217c-0.338-0.468-0.773,0.21-1.137,0.35
			c-1.02,0.541-2.146,0.84-3.331,0.675c-0.542-0.071-0.979-0.336-1.533-0.356c-0.932,0.176-1.845,0.743-2.847,0.513
			c-0.28-0.957,0.476-2.063,0.525-2.999c-0.567-1.633-0.554-3.854,0.725-5.287c1.221-1.667,3.516-2.192,5.447-1.638
			c1.557,0.475,2.7,1.798,3.307,3.276c0.522,0.622,1.421,0.105,2.174,0.222c1.891-0.23,3.856-0.054,5.813-0.323
			c1.47-0.828,2.879-1.618,4.448-2.145c0.21,0.048,0.201,0.327,0.283,0.456C65.39,165.89,65.556,167.099,65.475,168.417z"/>
		<path fill="#FFDD00" d="M64.178,165.835c0.062,0.685,0.289,1.403,0.075,2.08c-1.01,0.264-2.096,0.402-3.175,0.486
			c-0.238-0.164-0.312-0.571-0.238-0.89c0.934-0.676,1.964-1.27,3.021-1.747C63.966,165.788,64.083,165.755,64.178,165.835z"/>
		<path fill="#FFDD00" d="M51.672,167.17c0.383,1.481-0.35,3.205-1.6,4.032c-1.313,0.864-2.997,0.918-4.366,0.1
			c-1.342-0.7-2.082-2.318-2.014-3.808c0.196-1.572,1.065-2.928,2.636-3.453c1.218-0.447,2.79-0.027,3.844,0.723
			C50.942,165.275,51.501,166.241,51.672,167.17z"/>
		<path fill="#FFDD00" d="M59.687,168.634c-0.12,1.253-0.562,2.432-1.686,2.955c-0.417-0.602,0.18-1.739-0.669-2.159
			c-1.526-0.135-2.984,0.143-4.433,0.143c-0.457-0.44-0.097-1.026-0.079-1.58c0.035-0.159,0.273-0.213,0.389-0.243
			c1.896-0.009,3.799-0.291,5.707-0.349C59.703,167.36,59.574,168.166,59.687,168.634z"/>
		<path d="M48.789,168.561c0.089,0.584-0.269,1.167-0.815,1.373c-0.51,0.273-1.12,0.021-1.43-0.333
			c-0.35-0.414-0.427-1.04,0.002-1.442c0.297-0.324,0.728-0.5,1.163-0.454C48.186,167.81,48.622,168.083,48.789,168.561z"/>
		<path fill="#FFDD00" d="M56.478,171.679c0.068,1.635-0.775,3.107-2.188,3.671c-0.73,0.273-1.545,0.42-2.392,0.228
			c-0.092-0.081-0.198-0.102-0.161-0.261c0.542-1.382,0.803-2.986,0.792-4.385c0.038-0.155,0.296-0.318,0.455-0.281
			c1.12-0.024,2.268-0.424,3.42-0.1C56.542,170.917,56.511,171.298,56.478,171.679z"/>
		<path fill="#FFDD00" d="M44.269,171.752c-0.052,0.209-0.342,0.251-0.5,0.218c-0.304-0.125-0.153-0.537,0.042-0.66
			C44.06,171.203,44.273,171.469,44.269,171.752z"/>
	</g>
	<g>
		<path d="M174.793,209.282c-0.078-1.457-0.692-2.68-1.607-3.745c-2.067-1.761-4.587-3.515-7.569-2.756
			c-1.68-2.52-4.815-2.976-7.643-2.674c-2.598,1.604-4.74-1.906-7.566-0.685c-0.616-0.457-0.687-1.221-0.993-1.834
			c-1.304-1.452-2.754-3.058-4.813-2.904c-1.534-0.081-2.756,0.305-3.979,0.914c-1.225-1.754-2.979-2.825-4.891-3.363
			c-0.689-0.378-1.451,0.235-2.141-0.231c-0.233-1.142,0.075-2.52-0.307-3.586c-3.516-3.821-6.8-7.039-10.7-10.398
			c-0.075-0.149-0.15-0.306-0.15-0.462c0.912-1.293,1.986-3.057,1.142-4.509c-0.455-0.071-1.066,0.08-1.373,0.537
			c-0.458,0.076-0.762-0.151-0.993-0.458c-0.229-0.688,0.075-1.684-0.31-2.292c-0.916-0.303-0.53,0.84-0.994,1.07
			c-1.224-0.381-2.902-0.689-4.05-0.075c-0.61,0.382-1.45,0.99-1.373,1.831c0.996,0.768,0.996,2.066,1.451,3.056
			c0.305,1.072,1.604,1.38,2.141,2.22c-2.829,3.593-6.571,6.65-9.096,10.546c0,2.987,0.307,5.887,0.457,8.87
			c-0.15,0.228-0.15,0.533-0.379,0.764c-0.461,0.458-0.692-0.382-1.074-0.612c-2.824-2.45-7.183-2.676-10.318-0.917
			c-1.222,1.297-2.673-0.226-4.201,0c-2.602-0.155-4.359,1.604-5.659,3.595c-1.755-0.462-3.669-0.081-4.972,1.143
			c-0.759,0.226-0.687,1.833-1.523,1.071c-1.758-2.676-5.042-3.591-7.949-2.832c-0.689,0.234-1.378,0.92-2.064,0.92
			c-0.305-1.529-0.305-3.133-0.383-4.661c0.078-0.231,0.229-0.388,0.383-0.459c1.989-0.381,0.84-2.297,1.146-3.825
			c-0.078-0.382-0.533-0.764-0.993-0.911c-2.676,0.147-5.736,0.226-8.409,0.303c-1.298,0.916-0.229,2.598-0.53,4.053
			c-0.081,0.07-0.156,0.07-0.234,0.151c-0.993-0.382-1.911-0.921-2.904-1.378c-3.742-0.382-6.267,2.676-9.4,3.977
			c-1.376,0.382-0.687-1.685-1.149-2.369c-0.53-2.061-2.216-4.053-4.353-4.51c-0.689-0.537-2.065,0.23-2.522-0.693
			c-0.536-2.133-2.444-3.51-4.208-4.736c-2.441-0.99-5.73-1.376-7.945,0.384c-0.997,0.532-1.911,1.683-2.832,1.985
			c-2.978-1.832-6.496-0.916-9.169,0.915c-2.449,1.839-4.129,4.434-4.054,7.571c-2.449,1.299-5.045,3.978-4.738,7.186
			c0,3.745,2.905,6.647,5.885,8.486c-0.075,0.84-0.912,1.299-1.146,2.062c-0.151,1.07-0.075,2.212,0.385,3.133
			c1.451,2.061,3.362,3.438,5.963,3.594c7.946,0.684,17.045,0.227,24.611,0.075c7.411,0.538,15.514,0.152,23.005,0
			c22.165,0,44.715,0.459,66.961,0.077c-0.396,0.004,0.663-0.063,0.762-0.077c12.843-0.456,26.068,0,39.062-1.147
			c1.68-0.23,3.591,0,5.041-0.84c0.687-0.918,0.687-2.066,0.768-3.206C179.835,213.562,177.846,210.43,174.793,209.282z
			 M63.652,196.975c-0.613-0.382,0.31-0.382,0.38-0.076C63.962,197.129,63.803,197.048,63.652,196.975z"/>
		<path fill="#007DC5" d="M122.353,174.81c0.156,1.066-0.768,2.133-1.752,2.746c-0.998,0.384-2.217,0-3.213-0.378
			c-1.223-1.07-0.614-2.904-1.836-3.972c0.533-0.84,1.758-0.84,2.751-0.84C120.135,172.516,120.215,175.267,122.353,174.81z"/>
		<path d="M118.074,173.97c0.153,0.458-0.385,0.761-0.765,0.529c0-0.151-0.307-0.378-0.078-0.529
			C117.388,173.74,117.845,173.659,118.074,173.97z"/>
		<path d="M85.971,177.711c0.382,1.529-0.304,3.213-1.298,4.28c-4.048,3.057-10.32,2.144-14.527,0.155
			c-0.533-0.689-1.223-1.298-1.066-2.218c0.075-1.533,0.768-2.9,1.911-3.74c4.124-2.373,10.09-2.067,14.062,0.458
			C85.435,176.943,85.667,177.329,85.971,177.711z"/>
		<path fill="#FFFFFF" d="M84.821,178.935c0.081,0.923-0.687,1.833-1.454,2.292c-3.203,1.452-7.101,1.301-10.541,0.537
			c-0.611-0.388-1.456-0.765-1.758-1.453c-0.31-1.071,0.148-1.986,0.611-2.756c3.284-2.363,8.484-1.906,12.073-0.378
			C84.441,177.555,84.673,178.249,84.821,178.935z"/>
		<path fill="#ED1B2F" d="M122.813,180.924c-0.689,0.614-1.683,0.915-2.679,0.614c-0.3-0.162-0.914-0.311-0.761-0.923
			c0.38-0.687,0.761-1.295,1.525-1.68C121.666,179.32,122.584,180.084,122.813,180.924z"/>
		<path fill="#ED1B2F" d="M125.949,183.523c-0.463,0.84-1.607,0.991-2.447,0.916c-0.688,0-1.222-0.458-1.607-0.84
			c0.156-0.689,1.069-0.612,1.451-1.151C124.342,180.924,125.26,182.91,125.949,183.523z"/>
		<path fill="#ED1B2F" d="M119.679,183.141c0.156,0.614-0.536,0.765-0.916,1.143c-0.765,0.382-1.911,0.23-2.598-0.226
			c0.533-0.765,1.145-2.141,2.138-1.911C118.763,182.528,119.296,182.679,119.679,183.141z"/>
		<path d="M74.659,186.809c0.38,1.146-0.535,1.758-1.3,2.372c-2.291,1.222-5.12,0.76-7.647,0.378
			c-0.605-0.378-1.142-0.839-1.295-1.454c-0.229-0.683-0.075-1.523,0.229-2.062c1.683-1.68,4.127-1.529,6.423-1.377
			C72.363,185.203,74.124,185.359,74.659,186.809z"/>
		<path fill="#ED1B2F" d="M122.813,185.812c0,0.688-0.305,1.301-0.843,1.839c-0.53,0.453-1.298,0.534-1.987,0.453
			c-0.609-0.226-1.145-0.683-1.302-1.296c-0.607-1.533,1.383-1.148,1.838-2.143C121.284,185.048,122.124,185.359,122.813,185.812z"
			/>
		<path fill="#ED1B2F" d="M128.851,186.118c0.075,1.075-1.144,1.075-1.68,1.533c-1.068,0.075-2.064-0.386-2.522-1.227
			c-0.15-1.066,1.223-0.537,1.683-1.222C127.171,183.826,128.393,185.359,128.851,186.118z"/>
		<path fill="#ED1B2F" d="M117.078,187.039c-0.455,0.457-0.913,1.147-1.526,1.296c-0.993,0.156-2.141,0.231-2.904-0.533
			c0.077-1.071,1.373-1.831,2.215-2.599C115.552,185.971,117.616,185.51,117.078,187.039z"/>
		<path fill="#FFFFFF" d="M73.053,186.962c0.078,0.533-0.153,0.992-0.611,1.224c-1.836,0.533-4.046,0.533-5.965,0
			c-0.53-0.307-0.684-1.072-0.299-1.604c1.523-1.458,4.581-1.147,6.492-0.232C72.748,186.582,72.975,186.73,73.053,186.962z"/>
		<path fill="#ED1B2F" d="M131.068,188.261c-0.385,0.38-1.071,0.38-1.76,0.38c-0.305-0.537,0.535-0.84,0.765-1.22
			C130.455,187.495,130.993,187.802,131.068,188.261z"/>
		<path fill="#00AB4E" d="M39.881,191.317c0.687,0.614-0.075,1.834,0.837,2.372c1.071-0.765,2.527-0.765,3.597-0.225
			c2.6,1.75,3.133,4.962,2.673,7.717c-0.229,1.831-3.44,1.68-2.52,3.586c2.52,1.307,3.822,4.132,3.971,6.883
			c-0.305,2.141-0.148,4.893-2.291,6.27c-1.761,0.765-3.44,1.604-5.195,2.369c-2.143-0.081-4.587,0.303-6.728-0.081
			c-0.842-1.523-0.307-3.665-0.46-5.505c0.687-1.676,2.296-2.977,3.134-4.505c0.382-1.604-1.223-2.676-2.296-3.596
			c-1.605-0.608-2.824,0.615-3.739,1.533c-0.921-0.381-0.539-1.604-1.071-2.373c-0.38-0.765-0.611-1.604-1.529-1.905
			c-1.149-0.081-2.601-0.387-3.591,0.3c-1.61,2.525-0.383,6.041-0.383,8.941c0.383,2.143,0.838,4.514,0.608,6.731
			c-2.443,0.153-5.195,0.61-7.26-0.842c-1.225-0.531-1.914-1.761-1.914-2.903c-0.382-1.833,3.139-4.434-0.229-4.971
			c-2.06-1.454-4.431-3.44-4.355-6.191c-0.229-2.141,1.071-4.051,2.904-5.042c0.536-0.075,1.223-0.075,1.451-0.689
			c0.078-3.288,0.993-6.344,3.669-8.331c1.833-1.378,4.59-1.604,6.651-0.692c0.458,0.31,0.768,1.149,1.529,0.923
			c1.836-2.218,4.587-3.978,7.796-3.365C37.049,188.033,38.885,189.558,39.881,191.317z"/>
		<path fill="#ED1B2F" d="M124.875,188.873c-0.687,0.155-1.451,0.539-2.062,0.155c0.074-0.537,0.61-0.842,0.918-1.226
			C124.188,188.104,124.8,188.335,124.875,188.873z"/>
		<path fill="#ED1B2F" d="M117.768,189.255c-0.229,0-0.458-0.155-0.38-0.461C117.689,188.033,118.682,189.331,117.768,189.255z"/>
		<path fill="#ED1B2F" d="M112.262,189.255c-0.147,0.535-0.687,0.156-1.068,0.226c-0.304-0.301,0.075-0.688,0.382-0.763
			C111.731,189.028,112.187,188.873,112.262,189.255z"/>
		<path fill="#FFDD00" d="M131.756,190.015c0.231,4.587,0.307,8.64,0.231,13.303c0.075,3.135,3.744,2.676,5.804,3.591
			c1.76,0.459,3.439,1.151,5.203,1.841c1.222,1.368,0.382,3.972,0.764,5.726c-0.152,1.836,0.762,3.747-0.08,5.43
			c-0.912,0.152-1.986,0.078-2.98,0.078c-0.762-3.059,0.078-6.799-1.071-9.715c-1.219-1.83-3.588-1.83-5.502-1.75
			c-1.526,0.231-3.131,1.452-3.669,2.976c-0.765,2.448-0.837,5.276-0.687,8.029c-0.687,0.609-1.604,0.459-2.52,0.381
			c-0.156-0.076-0.156-0.23-0.307-0.381c-0.156-2.444-0.156-4.736,0-7.265c0.84-0.381,2.218,0.231,2.748-0.684
			c0.383-1.071-0.53-1.985-1.373-2.525c-4.204-2.829-8.334-6.345-12.839-8.789c-1.381-0.84-2.6-2.061-4.21-2.373
			c-0.15-2.292-0.84-4.424-0.457-6.797c1.375-0.231,2.832-0.231,4.204-0.386c4.968-0.837,10.244-0.61,15.138-0.915
			C130.611,190.015,131.298,189.79,131.756,190.015z"/>
		<path d="M126.942,192.997c1.068,1.454,1.526,3.287,0.996,5.044c-0.689,1.764-1.989,3.669-4.135,3.98
			c-2.219,0.454-4.43-0.236-6.188-1.533c-1.761-1.373-2.218-3.36-1.833-5.426c0.302-1.299,0.684-2.595,1.984-3.435
			C120.52,190.322,124.8,190.402,126.942,192.997z"/>
		<path fill="#ED1B2F" d="M127.249,194.683c1.068,2.064-0.234,4.202-1.378,5.806c-1.911,1.533-4.892,1.222-6.882,0.156
			c-1.68-1.071-2.673-2.675-2.522-4.661c0.385-1.68,0.843-3.751,2.754-4.129C122.28,190.553,125.718,191.931,127.249,194.683z"/>
		<path d="M125.106,193.464c1.225,1.292,1.68,3.359,0.915,4.962c-0.84,1.529-2.369,2.062-3.897,2.137
			c-1.604-0.075-3.057-0.378-3.975-1.831c-0.533-1.07-0.533-2.449-0.382-3.67c0.535-1.529,2.138-2.369,3.595-2.523
			C122.813,192.468,124.113,192.619,125.106,193.464z"/>
		<path fill="#ED1B2F" d="M70.99,193.379c0.151,0.463,0.151,1.303-0.385,1.453c-2.21,0.231-4.355,0.382-6.573,0.231
			c-0.308-0.38-0.229-1.071-0.07-1.448c1.145-0.691,2.598-0.691,4.049-0.769C68.923,192.924,70.301,192.694,70.99,193.379z"/>
		<path fill="#FFFFFF" d="M124.875,194.375c0.843,0.994,0.918,2.449,0.611,3.667c-0.533,1.453-2.062,1.839-3.362,1.839
			c-1.145,0-2.141-0.535-2.903-1.226c-0.608-0.84-0.837-1.907-0.608-2.983c0.299-0.989,1.371-1.907,2.367-2.207
			C122.434,193.308,123.731,193.615,124.875,194.375z"/>
		<path fill="#00AB4E" d="M139.397,196.824c1.149,0.915,2.218-0.615,3.368-0.84c1.68-0.615,3.435,0.07,4.662,1.145
			c0.839,1.071,1.755,1.987,1.602,3.435c0.762,1.074,1.604-0.228,2.603,0.081c2.902-0.308,5.117,2.061,6.342,4.434
			c0.843,1.143-1.071,2.444,0.533,3.284c2.062,0.769,3.214,3.057,3.669,5.124c0.229,2.367-0.532,4.817-2.293,5.957
			c-4.585,0.54-9.25,0.309-13.909,0.386c-0.229-0.078-0.229-0.306-0.31-0.386c-0.15-3.207-0.536-6.345-0.38-9.629
			c2.06-0.381,1.834-2.674,2.601-4.124c-0.229-0.923-1.225-1.533-2.062-1.914c-3.979-1.452-8.181-2.595-12.081-4.355
			c-0.305-1.683-0.229-3.669-0.076-5.505c0.614-0.689,1.527-0.152,2.372-0.152C137.336,194.375,139.015,195.214,139.397,196.824z"/>
		<path d="M122.584,195.525c-0.15,0.61-1.3,0.61-0.84,1.45c0.227,0.537,0.765,0.074,1.069,0.074c0.15-0.381,0.46-0.612,0.839-0.381
			c0.308,0.231,0.768,0.537,0.768,0.919c-0.385,0.455-0.768,0.613-1.225,0.765c-0.308-1.072-1.301-0.31-1.833-0.765
			c0.84-1.533-2.523-1.603-0.078-2.755C121.895,194.683,122.124,195.295,122.584,195.525z"/>
		<path fill="#ED1B2F" d="M63.962,198.809c2.899,1.989,6.113,3.516,8.938,5.808c0.46,0.234,0.307,0.612,0.231,0.991
			c-0.689,0.923-1.761-0.147-2.601-0.454c-3.897-2.448-7.491-5.732-12.154-6.42c-3.973,1.528-7.257,4.509-11.007,6.345
			c-0.075-1.221,1.225-2.146,1.451-3.368c2.522-1.68,5.12-3.284,7.801-4.736C59.297,195.214,61.741,197.664,63.962,198.809z"/>
		<path fill="#ED1B2F" d="M69.232,197.361c0.148,0.839,0.075,1.906,0.148,2.746c-1.22,0-2.138-1.142-3.203-1.603
			c-0.081-0.534-0.385-1.071-0.156-1.604c1.068-0.231,1.908-0.383,3.058-0.231C69.154,196.899,69.308,197.048,69.232,197.361z"/>
		<path fill="#00AB4E" d="M106.685,200.489c0,0.075,0,0.231,0,0.31c-3.974,3.129-7.874,6.569-11.774,9.781
			c-0.15,0.228-0.304,0.534-0.226,0.916c0.767,0.996,2.446,0.156,3.211,1.077c0.075,2.217-0.156,4.812-0.231,7.258
			c-0.915,0.076-1.758,0.153-2.595-0.078c0.072-3.058-0.538-6.041-3.211-7.564c-0.536-0.461-0.081-1.221-0.458-1.758
			c-1.454-2.525-3.597-4.822-6.652-5.048c-0.613,0.079-1.146,0.309-1.835,0.226c-0.151-1.142,0.921-2.062,1.835-2.595
			c1.527-0.915,2.827,0.533,4.124,0.533c0.617-0.995,0.689-2.137,1.61-2.981c0.99-0.84,2.213-1.448,3.666-1.297
			c1.147,0,2.143,1.151,3.292,0.84c1.68-1.603,3.82-2.674,6.188-1.906C104.852,198.427,106.073,199.267,106.685,200.489z"/>
		<path fill="#ED1B2F" d="M120.899,205.69c1.914,1.526,4.054,2.596,5.887,4.28c0.078,0.381-0.229,0.381-0.382,0.459
			c-9.553,0.149-18.648,0.537-28.28,0.149c-0.153-0.149-0.153-0.311-0.153-0.461c4.434-3.284,8.561-7.256,13.223-9.932
			C114.862,200.95,117.689,203.776,120.899,205.69z"/>
		<path fill="#FFFFFF" d="M62.274,201.711c2.907,1.685,5.812,3.443,8.484,5.429c0.536,4.203,0.383,8.488,0.458,12.689
			c-0.227,0.153-0.533,0.378-0.762,0.153c-0.689-1.609,0-3.515-0.38-5.28c-0.31-1.832-0.538-4.048-2.527-4.732
			c-1.526-0.381-3.586-0.537-4.889,0.459c-2.525,2.522-1.3,6.264-1.761,9.476c-1.146,0.764-2.29,0.078-3.747,0.303
			c-3.435-0.225-7.108,0.384-10.469-0.225c0.156-0.77,1.071-0.92,1.451-1.455c0.768-1.146,1.529-2.292,2.064-3.594
			c0.383,0.693-0.155,1.689,0.458,2.292c3.061,0.156,6.348,0.156,9.405,0c0.993-0.303,0.458-1.448,0.458-2.066
			c-1.68-1.525,0.379-3.969-1.454-5.346c-2.522,0.076-4.74,0.228-7.111,0.156c-1.145,0.916-0.611,2.676-0.835,3.972
			c-0.231,0.232-0.538,0.308-0.767,0.384c0.229-2.676-0.31-5.276-1.298-7.568c-0.078-0.156,0.15-0.227,0.15-0.305
			c2.826-2.595,6.188-4.128,9.325-5.964C60.062,200.261,61.13,201.182,62.274,201.711z"/>
		<path fill="#ED1B2F" d="M145.974,205.381c0.611,0.612-0.078,1.376-0.229,1.986c-0.617,0.768-1.376,0-2.067,0
			c-3.206-1.146-6.496-1.907-9.554-3.21c-0.611-0.688-0.533-2.061-0.073-2.75C138.251,202.097,141.845,204.238,145.974,205.381z"/>
		<path fill="#00AB4E" d="M164.087,203.47c0.151,0.458,0.386,0.996,0.843,1.146c1.376-0.612,3.131-0.915,4.509-0.151
			c1.986,1.071,4.283,3.208,3.974,5.652c0.765,0.849,2.296,0.537,3.063,1.684c1.602,1.834,2.673,4.354,1.749,6.808
			c-1.599,0.759-3.585,0.529-5.418,0.529c-3.29-0.151-6.501,0.386-9.938,0.23c0-0.995,0.765-1.834,0.912-2.825
			c0-3.444-0.53-6.953-3.739-8.718c-0.613-0.685-0.309-1.751-0.613-2.52c-0.229-1.223-1.376-2.218-1.376-3.367
			C160.041,200.798,162.868,201.408,164.087,203.47z"/>
		<path d="M118.149,205.843c0,0.303,0,0.61-0.305,0.759c-0.535,0.231-1.071-0.912-1.45,0c-0.31,0.92,0.684,2.373-0.461,2.907
			c-2.216-0.151-4.431,0.305-6.648,0.381c-0.689-1.07-0.156-2.595-0.84-3.669c-0.768,0.31-1.451,1.377-2.299,0.849
			c0.156-1.463,1.761-1.992,2.681-2.913c1.298-0.762,2.291-2.598,3.971-2.136C114.634,203.242,116.548,204.617,118.149,205.843z"/>
		<path fill="#00AB4E" d="M78.406,202.933c1.376,1.305,2.219,2.829,2.978,4.435c0.613,0.458,1.071-0.297,1.758-0.297
			c2.371-0.312,4.662,0.603,5.962,2.744c1.147,1.072-0.762,3.747,1.683,3.672c1.836,1.302,2.677,3.594,2.135,5.811
			c-0.226,0.146-0.226,0.608-0.605,0.608c-6.191-0.381-12.533-0.076-18.8-0.31c-0.31-0.152-0.31-0.458-0.385-0.684
			c0.075-3.596-0.539-7.261-0.231-10.852c0.915-1.074,2.14-2.297,2.064-3.746c-0.305-0.843-1.604-0.843-1.376-1.763
			C75.039,201.711,77.102,202.097,78.406,202.933z"/>
		<path d="M62.199,202.4c1.071,0.842,0.538,2.522,0.84,3.821c0.307,0.537,1.071,0.079,1.378,0.765
			c0.153,0.688,0.078,1.533-0.307,2.216c-2.98,0.08-6.038,0.156-8.867-0.152c-0.455-0.688-0.38-1.377-0.305-2.142
			c0.229-0.763,1.22-0.226,1.298-1.066c0.075-1.146-0.307-2.525,0.385-3.443C58.455,202.4,60.363,202.4,62.199,202.4z"/>
		<path fill="#007DC5" d="M58.684,204.004c0.075,0.234,0,0.385-0.153,0.461c-0.458-0.077-0.994,0.231-1.298-0.228
			c-0.081-0.381,0.15-0.768,0.458-0.768C58.072,203.47,58.912,203.318,58.684,204.004z"/>
		<path fill="#007DC5" d="M61.741,203.928c0,0.23,0,0.386-0.153,0.461c-0.611-0.076-1.378,0.228-1.68-0.385
			C59.827,203.168,61.66,203.242,61.741,203.928z"/>
		<path fill="#007DC5" d="M111.731,205.229c0.075,0.765-0.307,1.373-1.225,1.071c-0.153,0.071-0.31,0-0.457-0.155
			c-0.231-0.992,0.304-1.832,1.144-2.218C112.033,203.776,111.425,204.851,111.731,205.229z"/>
		<path fill="#007DC5" d="M115.398,205.607c0.08,0.845-0.993,0.538-1.532,0.614c-0.529,0.15-0.84-0.147-0.84-0.614
			c0.156-0.529-0.457-2.439,0.84-1.45C114.329,204.617,115.172,204.922,115.398,205.607z"/>
		<path fill="#007DC5" d="M58.84,205.607c0,0.467-0.385,0.538-0.768,0.614c-0.689,0.15-0.921-0.459-0.611-0.992
			C57.916,205.079,58.684,205.079,58.84,205.607z"/>
		<path fill="#007DC5" d="M61.813,205.537c0,0.306,0,0.684-0.376,0.763c-0.383-0.079-1.074,0.23-1.457-0.226
			c0.081-0.312-0.229-0.92,0.312-0.92C60.82,205.079,61.438,205.079,61.813,205.537z"/>
		<path fill="#FFDD00" d="M28.416,206.531c0.84,1.374,0,4.355,2.216,4.205c1.071-1.076,1.835-2.066,3.058-2.831
			c0.843,0.155,1.526,0.845,1.758,1.755c-0.616,1.532-2.064,2.755-3.134,3.976c-0.687,2.218,0.153,4.512-0.382,6.572
			c-1.531-0.075-3.137,0-4.665-0.151c-0.307-0.152-0.307-0.461-0.382-0.689c-0.383-4.434-1.142-8.789-1.069-13.294
			C26.427,205.537,28.106,205.381,28.416,206.531z"/>
		<path fill="#ED1B2F" d="M63.421,207.522c0.072,0.382-0.226,0.688-0.455,0.84c-2.067,0-4.357,0-6.578,0
			c-0.531-0.152-0.458-0.764-0.229-1.146C58.301,207.368,61.13,206.986,63.421,207.522z"/>
		<path fill="#007DC5" d="M115.398,207.673c-0.075,0.386-0.075,0.765-0.455,0.845c-0.614-0.081-1.532,0.301-1.761-0.383
			c-0.304-0.918,0.765-0.768,1.3-0.918C114.787,207.368,115.245,207.295,115.398,207.673z"/>
		<path fill="#007DC5" d="M111.575,208.519c-0.457,0.075-0.84,0.231-1.297,0.231c-0.383-0.312-0.153-0.77-0.229-1.152
			C110.735,207.295,112.262,207.217,111.575,208.519z"/>
		<path fill="#ED1B2F" d="M137.871,210.807c1.526,2.448,0.915,5.964,0.915,8.945c-0.072,0.078-0.15,0.153-0.304,0.231
			c-2.291,0.15-4.587,0.15-6.649,0c-0.155-0.078-0.155-0.231-0.31-0.387c-0.075-2.972-0.377-6.341,0.921-8.86
			c0.84-1.146,2.294-1.226,3.594-0.996C136.728,209.971,137.336,210.268,137.871,210.807z"/>
		<path fill="#ED1B2F" d="M68.239,212.415c0.684,2.217,0.611,4.893,0.455,7.415c-0.078,0.076-0.153,0.153-0.229,0.228
			c-1.604,0.076-3.896,0.307-5.656,0c-0.767-1.684-0.382-4.204-0.301-6.266c0.229-1.145,0.301-2.678,1.68-2.905
			C65.793,210.579,67.473,210.886,68.239,212.415z"/>
		<path fill="#007DC5" d="M54.863,211.343c0,0.383,0.075,0.844-0.385,0.916c-0.687-0.149-1.833,0.388-2.062-0.458
			c-0.078-0.458,0.307-0.537,0.687-0.609C53.639,211.113,54.479,210.886,54.863,211.343z"/>
		<path fill="#007DC5" d="M58.53,211.575c-0.075,0.226,0.078,0.534-0.154,0.612c-0.762,0.228-1.453-0.078-2.218,0
			c-0.302-0.231-0.229-0.693-0.075-0.923C56.851,211.113,57.841,211.192,58.53,211.575z"/>
		<path fill="#FFDD00" d="M125.41,212.188c0.076,0.071,0.154,0.228,0.229,0.303c0.153,2.444,0.231,5.198-0.075,7.415
			c-8.791,0.303-16.508,0.078-25.378,0.152c-0.307-0.152-0.762,0-0.993-0.305c-0.153-2.601-0.229-5.049,0.08-7.564
			c7.796-0.386,15.36,0.384,23.389,0.071C123.502,212.109,124.498,212.188,125.41,212.188z"/>
		<path d="M111.883,213.411c-0.229,1.524,0.613,3.669-0.689,4.584c-2.444,0-4.967,0-7.263,0c-1.22-0.995-0.302-2.981-0.46-4.509
			c0.237-0.231,0.237-0.231,0.46-0.459c2.522,0,5.048,0,7.645,0C111.654,213.255,111.883,213.184,111.883,213.411z"/>
		<path d="M121.971,213.636c-0.076,1.455,0.31,2.676,0,4.053c-0.076,0.152-0.227,0.152-0.305,0.307
			c-2.755,0.228-5.118-0.155-7.948,0c-1.222-0.995-0.307-2.981-0.46-4.434c1.376-0.61,3.059-0.378,4.587-0.534
			C119.221,213.255,120.823,212.871,121.971,213.636z"/>
		<path fill="#007DC5" d="M54.863,213.562c0.148,1.453-1.531,0.306-2.218,0.689c-0.307-0.156-0.307-0.689-0.156-0.92
			C53.104,213.184,54.479,212.952,54.863,213.562z"/>
		<path fill="#007DC5" d="M58.608,213.411c0.379,1.377-1.457,0.764-2.297,0.916c-0.382-0.152-0.455-0.69-0.229-0.996
			C56.772,213.027,57.916,212.952,58.608,213.411z"/>
		<path fill="#007DC5" d="M111.118,214.404c-0.072,0.384-0.229,0.53-0.611,0.756c-0.688-0.226-2.062,0.386-2.443-0.458
			c-0.308-0.836,0.532-0.912,0.993-0.912C109.667,214.095,110.965,213.411,111.118,214.404z"/>
		<path fill="#007DC5" d="M107.145,214.404c0.075,0.53-0.307,0.687-0.767,0.756c-0.689-0.07-1.526,0.155-2.141-0.226
			c-0.229-0.684,0.229-1.143,0.921-1.067C105.845,214.023,106.994,213.486,107.145,214.404z"/>
		<path fill="#007DC5" d="M116.852,214.404c0.227,1.449-1.758,0.61-2.522,0.756c-0.382-0.226-0.153-0.61-0.231-0.834
			C115.016,214.023,116.085,213.942,116.852,214.404z"/>
		<path fill="#007DC5" d="M121.055,214.326c-0.075,0.225,0.154,0.608-0.155,0.834c-0.994-0.146-2.218,0.235-3.055-0.297
			c0-0.388,0-0.769,0.383-0.84C119.143,214.095,120.291,213.792,121.055,214.326z"/>
		<path d="M137.492,214.476c0.15,0.459-0.156,0.92-0.466,1.152c-0.458,0.071-1.22,0.071-1.295-0.614
			c0.075-0.311,0.153-0.688,0.46-0.919C136.646,214.174,137.258,213.867,137.492,214.476z"/>
		<path fill="#ED1B2F" d="M59.297,215.396c0.151,0.382,0.073,0.916-0.385,0.996c-2.215,0-4.662,0.076-6.725-0.081
			c-0.08-0.228-0.31-0.612-0.08-0.916c0.08-0.081,0.153-0.155,0.31-0.235c2.14,0,4.506,0,6.57,0
			C59.065,215.241,59.141,215.315,59.297,215.396z"/>
		<path d="M68.086,215.778c0.153,0.377-0.229,0.614-0.385,0.916c-0.38-0.07-0.996,0.23-1.068-0.382
			c-0.156-0.458,0.072-0.916,0.532-0.996C67.548,215.241,67.93,215.396,68.086,215.778z"/>
		<path fill="#007DC5" d="M107.145,216.543c0.075,0.306-0.15,0.306-0.382,0.458c-0.616-0.307-3.134,0.688-2.525-0.917
			c0.843-0.153,1.909-0.153,2.832,0C107.069,216.155,107.145,216.312,107.145,216.543z"/>
		<path fill="#007DC5" d="M110.965,216.392c0.153,0.608-0.536,0.457-0.915,0.457c-0.692-0.225-1.686,0.615-1.917-0.306
			c0-0.231,0-0.388,0.231-0.459C109.129,216.006,110.66,215.628,110.965,216.392z"/>
		<path fill="#007DC5" d="M121.209,216.543c0,0.228-0.229,0.306-0.154,0.537c-0.84,0.454-1.987,0.071-2.98,0.071
			c-0.307-0.228-0.229-0.759-0.076-0.996c0.841-0.302,2.066-0.225,2.981-0.071C121.209,216.155,120.979,216.392,121.209,216.543z"/>
		<path fill="#007DC5" d="M116.928,216.543c0.304,0.765-0.689,0.684-1.145,0.684c-0.538-0.226-1.301,0.081-1.763-0.226
			c-0.377-1.301,1.073-0.689,1.679-0.917C116.009,216.312,116.852,215.778,116.928,216.543z"/>
	</g>
	<g>
		<path d="M312.715,183.223c0.2,0.884,0.255,1.918,1.265,2.383c0.188,0.146,0.594,0.065,0.599,0.397
			c-0.062,0.595-0.687,0.941-1.127,1.205c-0.516,0.194-1.068,0.426-1.658,0.475c-0.217,0.336-0.209,0.817-0.202,1.228
			c0.338,0.217,0.638,0.433,1.009,0.5c3.297-0.132,6.595,0.032,9.855,0.014c2.557-0.081,5.079,0.132,7.634,0.012
			c1.185-0.093,2.334,0.036,3.486,0.126c0.186,0.035,0.298,0.18,0.45,0.326c0.96,1.945,1.625,4.048,2.659,5.957
			c2.411-1.931,5.386-3.54,8.589-2.598c1.271,0.682,2.732,1.732,3.204,3.131c0.446,0.216,0.886-0.162,1.37-0.023
			c2.264,0.22,4.845,1.693,5.48,4.054c0.21,1.366,0.089,2.888-0.371,4.119c1.871,1.153,3.351,3.092,2.909,5.473
			c-0.196,1.447-0.875,2.829-2.121,3.74c0.806,1.58,0.509,3.625-0.469,4.975c-0.689,0.902-1.645,1.214-2.681,1.418
			c0.086,0.7-0.083,1.443-0.035,2.109c2.668,0.104,5.483-0.02,8.116,0.155c0.299,0.11,0.417,0.476,0.31,0.736
			c-0.107,0.152-0.181,0.263-0.328,0.339c-12.927,0.191-25.501-0.48-38.392-0.291c-13.856-0.019-27.643-0.187-41.54-0.277
			c-1.371-0.049-2.671-0.249-4.043-0.224c-13.416-0.174-26.751-0.016-39.981-0.229c-9.271-0.284-18.86,0.067-28.014-0.03
			c-2.893-0.026-5.969-0.229-8.97-0.178c-0.19-0.329,0.025-0.668,0.056-1.036c0.479-0.123,1.035-0.133,1.555-0.143
			c3.22-0.168,6.339,0.188,9.525,0.168c5.701-0.284,11.562,0.168,17.227-0.152c0.034-0.039,0.108-0.074,0.072-0.113
			c-1.207-1.202-1.499-3.124-1.009-4.687c0.874-0.87-0.766-1.357-0.891-2.136c-0.88-1.685-0.811-4.135,0.384-5.674
			c0.76-1.05,1.858-1.7,3.003-1.978c0.029-0.521-0.277-1.07-0.362-1.625c-0.114-2.332,1.33-4.506,3.426-5.47
			c1.726-0.92,4.137-0.739,5.818,0.12c0.513-0.342,0.539-1.046,1.05-1.463c1.673-1.844,3.8-3.104,6.439-2.594
			c1.336,0.161,2.461,0.956,3.441,1.902c0.186-0.003,0.296-0.042,0.442-0.119c1.306-1.615,2.127-3.444,3.433-5.062
			c1.209-0.837,2.923-0.235,4.328-0.411c0.073,0,0.11-0.074,0.146-0.11c0.171-0.82,0.044-1.744,0.178-2.525
			c0.145-0.188,0.254-0.375,0.475-0.415c1.519-0.064,3.258-0.206,4.745,0.104c0.482,0.138,0.308,0.659,0.389,1.031
			c0.086,0.739-0.342,1.708,0.444,2.102c5.633,0.123,11.344,0.32,17.049,0.258c0.111-0.002,0.183-0.115,0.181-0.226
			c0.021-0.962-0.034-1.963,0.359-2.785c1.365-0.284,2.888-0.086,4.297-0.038c0.48-0.045,0.711,0.393,0.793,0.765
			c0.235,0.772-0.123,1.557,0.113,2.333c0.599,0.32,1.637,0.304,2.224-0.042c0.575-0.898,0.966-1.867,1.619-2.695
			c0.146-0.15,0.33-0.226,0.478-0.268c1.628-0.1,3.298-0.023,4.854-0.048c0.478-0.229,0.207-0.856,0.31-1.301
			c0.06-0.854-0.33-1.957,0.289-2.562c1.369-0.097,2.854,0.1,4.337,0.074c0.445,0.064,0.894,0.281,0.791,0.837
			c0.021,1.039-0.04,1.889,0.015,2.926c0.039,0.11,0.152,0.184,0.227,0.18c2.628-0.081,5.227,0.097,7.893,0.014
			c0.255-0.229,0.774-0.274,0.69-0.717c-0.006-0.333,0.062-0.704-0.054-0.962c-0.709-0.284-1.533-0.75-1.878-1.525
			c-0.311-0.807-0.142-1.698-0.007-2.52c-0.232-0.512-1.126-0.755-0.879-1.428c0.441-0.194,0.963-0.054,1.366-0.284
			c0.699-0.307,1.661-0.436,2.334-0.039C311.955,182.196,312.519,182.632,312.715,183.223z"/>
		<path fill="#007DC5" d="M311.449,182.91c0.755,0.766,0.258,2.07,1.196,2.759c0.189,0.22,0.862,0.504,0.312,0.81
			c-0.846,0.385-2.066,0.556-2.89,0.049c-0.486-0.249-0.755-0.727-0.835-1.208c-0.09-0.85,0.523-1.825-0.267-2.477
			C309.662,182.422,310.842,182.067,311.449,182.91z"/>
		<path fill="#ED1B2F" d="M300.615,186.359c0.201,0.85,0.145,1.851,0.123,2.814c-0.071,0.113-0.256,0.155-0.402,0.194
			c-1.038-0.02-2.11,0.109-3.077-0.097c-0.057-0.999-0.073-2.072,0.021-2.962C298.351,186.105,299.504,186.343,300.615,186.359z"/>
		<path fill="#ED1B2F" d="M262.582,189.654c0.198,0.662,0.063,1.409,0.038,2.109c-1.11,0.097-2.37,0.046-3.558-0.009
			c-0.11,0.004-0.112-0.109-0.15-0.185c0.025-0.665-0.327-1.696,0.372-2.005C260.432,189.47,261.472,189.674,262.582,189.654z"/>
		<path fill="#ED1B2F" d="M285.603,190.143c0.084,0.665,0.099,1.479,0.073,2.148c-1.112-0.055-2.405,0.116-3.413-0.237
			c-0.011-0.667,0.128-1.228,0.152-1.892c0.037-0.04,0.073-0.04,0.11-0.079C283.562,190.067,284.563,190.162,285.603,190.143z"/>
		<path fill="#ED1B2F" d="M311.5,190.062c1.729,1.488,3.312,2.977,4.934,4.619c0.04,0.109-0.07,0.074-0.108,0.113
			c-3.451-0.274-7.042-0.065-10.454-0.375c-0.004-0.109,0.033-0.222,0.105-0.297c1.605-1.398,3.248-2.797,4.931-4.089
			C311.092,190.032,311.35,189.952,311.5,190.062z"/>
		<path fill="#ED1B2F" d="M308.101,190.6c0.075,0.076,0.003,0.11-0.035,0.149c-1.565,1.546-3.509,2.693-4.813,4.458
			c0.086,0.556,0.782,0.206,1.158,0.459c0.433,1.475,0.165,3.223,0.195,4.85c-0.015,1.225-0.03,2.52-0.157,3.748
			c-0.585,0.417-1.513,0.32-2.291,0.336c-4.858-0.213-9.671,0.058-14.6-0.116c-0.633-0.101-1.299-0.014-1.967-0.113
			c-0.112-0.11-0.004-0.223-0.008-0.372c1.887-4.48,3.398-9.139,5.732-13.438c0.11-0.078,0.182-0.152,0.293-0.156
			C297.201,190.201,302.543,190.623,308.101,190.6z"/>
		<path fill="#ED1B2F" d="M328.218,190.51c1.591-0.065,3.257-0.093,4.784,0.139c1.378,2.607,2.279,5.443,3.548,8.128
			c0.739,1.913,1.55,3.824,2.25,5.74c-1.483-0.013-3.144,0.238-4.63,0.005c-5.521,0.023-10.894,0.078-16.343-0.048
			c-0.161-2.852,0.049-5.669,0.073-8.561c0.296-0.081,0.63-0.083,0.735-0.419c-0.162-0.739-0.838-1.208-1.403-1.717
			c-0.979-1.018-2.146-2.075-3.128-3.096C318.802,190.265,323.478,190.63,328.218,190.51z"/>
		<path fill="#ED1B2F" d="M265.385,193.087c3.634,0.159,7.302,0.168,11.046,0.253c3.108-0.24,5.822,0.268,8.896,0.142
			c0.999-0.019,1.926,0.004,2.889,0.022c0.152,0.111,0.043,0.259,0.008,0.372c-1.139,2.723-2.238,5.485-3.377,8.212
			c-1.182,0.242-2.552,0.265-3.813,0.212c-4.034,0.146-8.081-0.155-12.08-0.122c-1.889,0.032-3.818-0.081-5.668,0.025
			c-4.856-0.099-9.814,0.32-14.712-0.077c-0.191-0.404,0.172-0.782,0.351-1.118c1.473-2.656,3.317-5.245,5.164-7.723
			c0.184-0.152,0.402-0.23,0.626-0.233C258.311,193.175,261.862,192.891,265.385,193.087z"/>
		<path fill="#00AB4E" d="M346.959,196.409c0.487,0.432,0.466,1.324,1.243,1.311c2.065-0.63,4.006,0.187,5.33,1.758
			c0.942,0.985,0.975,2.687,0.514,3.92c-0.026,0.591-0.871,1.05-0.414,1.673c1.387,0.902,3.147,2.019,3.142,3.838
			c-0.046,1.667-0.42,3.526-2.11,4.37c0.011,0.63,0.355,1.253,0.479,1.918c0.133,1.222-0.069,2.52-1.167,3.17
			c-0.809,0.459-1.81,0.365-2.732,0.565c-0.654,0.642,0.431,1.253,0.296,2.035c0.008,0.517-0.17,1.041-0.685,1.234
			c-2.555,0.044-5.222,0.129-7.781-0.014c-0.518-2.064-0.372-4.402-0.743-6.543c0.984-0.909,2.385-1.341,3.292-2.43
			c-0.279-1.108-0.998-1.984-1.607-2.976c-0.379-0.584-1.154-0.31-1.596-0.081c-0.552,0.23-1.028,0.537-1.58,0.73
			c-0.394-1.252-0.197-2.849-1.397-3.608c-0.484-0.175-1.039-0.016-1.521-0.12c-0.081-0.407-0.054-0.963,0.051-1.373
			c0.697-0.381,1.779,0.046,2.326-0.524c-0.975-2.612-1.981-5.187-2.953-7.801c0.6-1.68,2.404-2.377,3.801-3.029
			C343.354,193.692,345.63,194.541,346.959,196.409z"/>
		<path fill="#00AB4E" d="M248.807,198.567c0.041,0.147,0.041,0.258,0.009,0.442c-0.718,1.311-1.921,2.441-2.229,3.893
			c0.2,0.923,1.484,0.162,1.577,1.159c0.055,5.259,0.188,10.78,0.133,16.155c-0.288,0.485,0.216,1.734-0.827,1.422
			c-0.635-0.25-1.957,0.403-2.047-0.524c-0.024-1.405-0.123-2.775,0.001-4.112c0.579-0.824,1.456-1.58,2.034-2.369
			c0.058-0.891-0.693-1.47-1.113-2.202c-0.638-0.436-1.143,0.352-1.696,0.436c-0.147,0.002-0.113-0.146-0.153-0.258
			c0.061-0.779,0.197-1.558,0.258-2.339c-0.041-0.145-0.154-0.219-0.266-0.256c-1.147-0.016-2.261-0.07-3.255,0.355
			c-0.433,0.562-0.161,1.409-0.296,2.116c-0.593-0.064-0.759-1.098-1.421-0.752c-0.733,0.419-1.577,0.878-2.082,1.667
			c0.282,1.366,1.559,2.271,2.062,3.521c-0.084,1.521,0.09,3.074-0.293,4.486c-2.888,0.09-5.816-0.007-8.635-0.146
			c-1.269-0.494-2.07-1.777-2.388-2.995c-0.167-1.071,0.562-1.75,1.142-2.539c-0.054-1.001-1.239-1.018-1.698-1.786
			c-0.906-1.021-0.972-2.653-0.624-3.954c0.312-1.191,1.515-2.287,2.773-2.458c0.48-0.081,0.998-0.09,1.516-0.139
			c0.545-0.602-0.388-0.992-0.545-1.509c-0.515-1.916,0.229-3.784,1.616-5.069c1.608-1.25,4.17-1.034,5.958-0.4
			c0.374,0.22,0.679,0.656,1.121,0.536c0.325-0.523,0.351-1.153,0.638-1.641c0.977-1.425,2.36-2.856,4.137-2.888
			C246.134,196.167,247.818,197.064,248.807,198.567z"/>
		<path fill="#FFDD00" d="M316.492,195.865c0.011,2.778,0.358,5.738,0,8.522c-3.517,0.206-7.107,0.345-10.629,0.259
			c-0.038-0.076-0.113-0.11-0.113-0.146c0.021-2.927,0.045-5.893,0.107-8.784c0.032-0.223,0.256-0.078,0.329-0.155
			C309.597,195.688,313.117,195.627,316.492,195.865z"/>
		<path d="M315.196,198.073c0.911,1.208,0.724,3.21-0.07,4.412c-1.563,1.731-4.263,2.074-6.351,1.26
			c-1.381-0.423-1.962-1.932-2.206-3.224c-0.172-1.405,0.247-2.82,1.456-3.583c1.284-0.762,2.983-1.013,4.51-0.671
			C313.506,196.693,314.514,197.158,315.196,198.073z"/>
		<path fill="#ED1B2F" d="M314.537,198.456c0.527,0.546,0.69,1.322,0.629,2.136c-0.02,0.965-0.859,1.683-1.591,2.25
			c-1.21,0.614-2.954,0.608-4.294,0.226c-0.895-0.319-1.614-1.159-1.851-2.08c-0.206-1.146-0.12-2.556,0.866-3.35
			C310.09,196.308,313.133,196.519,314.537,198.456z"/>
		<path d="M313.957,199.206c0.233,0.662,0.361,1.625-0.073,2.226c-0.57,1.23-1.866,1.253-3.012,1.421
			c-0.893-0.133-1.677-0.562-2.247-1.331c-0.344-0.586-0.543-1.399-0.407-2.104c0.212-0.635,0.684-1.163,1.269-1.544
			C311.067,197.109,312.968,197.704,313.957,199.206z"/>
		<path fill="#FFFFFF" d="M313.521,199.658c0.307,0.627-0.015,1.299-0.339,1.783c-0.804,0.685-1.982,1.11-3.028,0.61
			c-0.562-0.287-1.237-0.868-1.361-1.535c-0.197-0.771,0.235-1.373,0.708-1.938c0.579-0.749,1.658-0.51,2.401-0.375
			C312.573,198.454,313.176,199.035,313.521,199.658z"/>
		<path d="M311.53,200.323c0.371,0.068,0.887-0.165,1.151,0.166c0.116,0.219-0.029,0.411-0.176,0.52
			c-0.629,0.048-1.26,0.022-1.889,0.036c-0.074,0-0.188-0.11-0.188-0.184c-0.05-0.702-0.25-1.59,0.073-2.188
			C311.503,198.731,310.495,200.452,311.53,200.323z"/>
		<path fill="#FFDD00" d="M266.676,203.292c5.564,0.31,11.413,0.136,17.012,0.258c0.667-0.01,0.158,0.665,0.127,0.927
			c-0.219,0.261-0.247,0.704-0.094,0.998c0.635,0.323,1.483,0.087,2.191,0.297c0.112,0.071,0.078,0.219,0.152,0.294
			c0.091,5.185,0.221,10.443-0.135,15.602c-0.035,0.074-0.109,0.109-0.183,0.113c-1.89,0.032-3.707-0.011-5.596-0.053
			c-3.706,0.03-7.265-0.132-11.006-0.028c-0.999,0.054-1.927,0.07-2.963,0.051c-5.372-0.055-10.821-0.032-16.308-0.233
			c-0.189-0.258-0.195-0.552-0.273-0.849c-0.125-2.813-0.211-5.627-0.223-8.479c0.14-2.598-0.021-5.411,0.195-7.895
			c0.068-0.335,0.061-0.817,0.54-0.861C255.596,203.228,261.154,203.315,266.676,203.292z"/>
		<path d="M260.707,205.325c0.225,0.106,0.561,0.248,0.455,0.584c0.029,1.518,0.241,3.182-0.065,4.668
			c-0.073,0.152-0.183,0.154-0.293,0.229c-2.817-0.061-5.633-0.086-8.415-0.261c-0.298-0.067-0.562-0.323-0.53-0.655
			c-0.061-1.444-0.05-2.891,0.036-4.3c0.108-0.113,0.219-0.19,0.328-0.264c0.778-0.052,1.63,0.005,2.407-0.081
			C256.631,205.282,258.706,205.247,260.707,205.325z"/>
		<path d="M271.828,205.537c0.445,0.064,0.453,0.51,0.46,0.918c0.022,1.334,0.011,2.742-0.039,4.115
			c0.004,0.184-0.218,0.262-0.327,0.339c-2.776,0.12-5.446,0.133-8.153-0.044c-0.259,0.005-0.596-0.175-0.601-0.507
			c-0.103-1.629-0.021-3.299,0.174-4.894c0.108-0.113,0.256-0.152,0.403-0.194C266.523,205.26,269.047,205.438,271.828,205.537z"/>
		<path d="M282.276,205.54c0.222,0.032,0.56,0.175,0.601,0.434c0.138,1.592,0.094,3.223-0.065,4.746
			c-0.108,0.148-0.257,0.187-0.403,0.189c-2.297,0.042-4.37,0.152-6.632,0.081c-0.407,0.007-0.818-0.136-1.044-0.427
			c0.008-1.667,0.09-3.3,0.283-4.896c0.146-0.187,0.331-0.191,0.516-0.233C277.754,205.434,280.051,205.395,282.276,205.54z"/>
		<path fill="#007DC5" d="M255.795,206.151c0.155,0.369,0.199,0.885,0.097,1.294c-0.998,0.126-2.147,0.076-3.187-0.019
			c-0.228-0.293-0.126-0.775-0.02-1.075C253.642,205.928,254.721,206.17,255.795,206.151z"/>
		<path fill="#007DC5" d="M260.097,206.371c0.263,0.182,0.233,0.701,0.054,0.962c-0.919,0.463-2.182,0.224-3.184,0.168
			c-0.044-0.368-0.242-1.108,0.161-1.375C258.13,206.183,259.165,206.093,260.097,206.371z"/>
		<path fill="#FFDD00" d="M336.525,205.779c0.153,0.294,0.086,0.702,0.094,1.073c0.017,5.185-0.196,10.121-0.328,15.233
			c-4.888,0.085-9.672,0.021-14.562-0.042c-0.108-2-0.07-4.038,0.045-5.93c0.259-0.113,0.628-0.124,0.732-0.459
			c-0.586-1.802-1.542-3.454-2.498-5.069c-0.261-0.181-0.521-0.287-0.783-0.395c-5.185,0.166-10.348-0.559-15.601-0.058
			c-0.366,0.227-0.583,0.565-0.762,0.902c-0.716,1.421-1.582,2.768-2.299,4.153c0.047,0.627,0.745,0.247,1.012,0.646
			c-0.149,2.042,0.068,4.003-0.154,5.969c-0.036,0.076-0.035,0.149-0.109,0.149c-4.592,0.12-9.299,0.09-13.896-0.126
			c-0.075-0.035-0.147-0.035-0.188-0.106c-0.095-5.336-0.259-10.63-0.129-15.932c0.07-0.148,0.22-0.077,0.33-0.155
			C303.772,205.831,320.104,205.583,336.525,205.779z"/>
		<path fill="#007DC5" d="M267.062,206.326c0.192,0.365,0.051,0.85,0.023,1.26c-0.885,0.309-1.963,0.141-2.891,0.083
			c-0.303-0.291-0.088-0.811-0.056-1.182C265.059,206.209,266.062,206.342,267.062,206.326z"/>
		<path fill="#007DC5" d="M271.175,206.364c-0.104,0.482,0.398,1.55-0.454,1.454c-0.816,0.052-1.633-0.083-2.413-0.07
			c-0.483-0.249-0.237-0.959-0.282-1.402C269.024,206.254,270.174,206.271,271.175,206.364z"/>
		<path fill="#007DC5" d="M278.589,206.532c-0.028,0.443,0.054,0.925-0.052,1.296c-0.925,0.164-1.964-0.004-2.854-0.062
			c-0.082-0.443-0.166-0.995,0.125-1.373c0.734-0.307,1.699-0.251,2.516-0.155C278.473,206.273,278.549,206.419,278.589,206.532z"/>
		<path fill="#007DC5" d="M281.625,206.368c0.448,0.249,0.274,0.92,0.245,1.327c-0.662,0.272-1.591,0.139-2.296,0.152
			c-0.083-0.517-0.244-1.292,0.193-1.634C280.434,206.128,281.031,206.303,281.625,206.368z"/>
		<path d="M299.763,207.457c0.216,1.738-0.011,3.634-0.13,5.374c-0.107,0.152-0.254,0.305-0.438,0.344
			c-1.445,0.061-2.852,0.123-4.262,0c-1.149-0.092-2.406,0.076-3.521-0.088c-0.188-0.068-0.189-0.256-0.303-0.365
			c-0.068-1.776-0.137-3.592,0.167-5.265c1.102-0.646,2.662-0.304,3.993-0.475c1.445,0.048,2.89-0.052,4.227,0.109
			C299.646,207.162,299.723,207.311,299.763,207.457z"/>
		<path fill="#007DC5" d="M255.873,208.522c0.117,0.368,0.164,0.92-0.015,1.295c-0.925,0.09-1.889,0.032-2.779-0.025
			c-0.335-0.106-0.452-0.476-0.423-0.844c-0.156-0.478,0.326-0.527,0.658-0.533C254.204,208.438,255.019,208.387,255.873,208.522z"
			/>
		<path fill="#007DC5" d="M260.281,208.444c0.265,0.365,0.126,0.886,0.134,1.332c-1.072,0.129-2.333,0.039-3.481,0.023
			c0.066-0.482-0.17-1.147,0.271-1.451C258.242,208.405,259.351,208.2,260.281,208.444z"/>
		<path fill="#007DC5" d="M294.806,207.989c0.268,0.474,0.167,1.147,0.104,1.627c-0.853,0.09-1.778,0.069-2.633,0.009
			c-0.117-0.48-0.054-1.036,0.014-1.518C293.06,207.759,293.955,208.076,294.806,207.989z"/>
		<path fill="#007DC5" d="M298.999,208.361c0.008,0.446-0.021,0.926-0.089,1.334c-0.925,0.055-1.997,0.146-2.926,0.016
			c0.101-0.595-0.366-1.848,0.601-1.753C297.329,208.202,298.507,207.667,298.999,208.361z"/>
		<path fill="#007DC5" d="M266.881,208.735c0.228,0.293,0.163,0.814,0.095,1.146c-0.072,0.113-0.182,0.152-0.255,0.229
			c-0.815-0.026-1.633-0.083-2.411-0.106c-0.302-0.33-0.239-0.923-0.171-1.331C265.062,208.509,265.991,208.677,266.881,208.735z"/>
		<path fill="#007DC5" d="M271.183,208.92c-0.03,0.335,0.204,1.107-0.351,1.082c-0.853,0.051-1.853,0.104-2.742,0.009
			c-0.117-0.369-0.203-0.999,0.088-1.26C269.145,208.846,270.289,208.677,271.183,208.92z"/>
		<path fill="#007DC5" d="M278.521,209.013c0.229,0.517-0.016,1.26-0.685,1.163c-0.704,0.014-1.374-0.199-2.004-0.151
			c-0.116-0.369-0.123-0.775-0.132-1.222c0.036-0.035,0.072-0.074,0.146-0.113C276.738,208.749,277.771,208.544,278.521,209.013z"/>
		<path fill="#007DC5" d="M281.814,208.77c0.005,0.372,0.24,1.07-0.164,1.264c-0.739,0.051-1.443,0.026-2.111-0.039
			c-0.191-0.33-0.089-0.775-0.021-1.112C280.18,208.467,281.036,208.823,281.814,208.77z"/>
		<path d="M331.454,208.237c0.075,0.11,0.226,0.221,0.267,0.369c-0.014,1.37-0.027,2.739-0.151,4.038
			c-0.146,0.152-0.294,0.229-0.476,0.268c-2.3,0.004-4.488-0.217-6.752-0.287c-0.11-0.076-0.224-0.182-0.264-0.256
			c-0.098-1.444-0.124-2.926,0.15-4.229c0.182-0.261,0.515-0.155,0.735-0.231C327.079,208.131,329.408,207.828,331.454,208.237z"/>
		<path fill="#FFDD00" d="M339.511,209.136c0.204,1.108,0.264,2.293,0.835,3.247c0.704-0.014,1.173-0.727,1.838-0.886
			c0.369-0.12,0.697-0.346,1.104-0.391c0.492,0.549,0.835,1.172,1.144,1.835c-0.947,0.904-2.347,1.336-3.068,2.497
			c0.038,2.187,0.262,4.407,0.302,6.664c0,0.074-0.035,0.113-0.07,0.187c-1.263-0.162-2.705,0.011-3.897-0.303
			c0-4.222,0-8.483,0-12.708c0.105-0.372-0.052-0.852,0.242-1.041C338.568,208.299,339.643,208.135,339.511,209.136z"/>
		<path fill="#007DC5" d="M327.096,208.906c0.188,0.295,0.083,0.666-0.021,0.927c-0.74,0.123-1.486-0.048-2.188-0.148
			c-0.006-0.258-0.011-0.592,0.057-0.889C325.685,208.819,326.388,208.883,327.096,208.906z"/>
		<path fill="#007DC5" d="M330.765,208.955c0.153,0.295,0.086,0.701,0.092,1.034c-0.813,0.166-1.777,0.145-2.522-0.139
			c0.067-0.372-0.242-1.034,0.314-1.004C329.354,208.867,330.095,208.819,330.765,208.955z"/>
		<path fill="#FFDD00" d="M243.638,212.256c-0.101,0.63-0.089,1.294-0.152,1.963c0.829,0.801,1.509-0.62,2.281-0.93
			c0.371,0.067,0.453,0.476,0.605,0.734c0.001,0.074,0.04,0.184-0.032,0.222c-0.582,0.714-1.35,1.208-2.006,1.887
			c-0.229,1.709-0.048,3.556-0.24,5.305c-0.11,0.074-0.221,0.148-0.369,0.116c-0.964-0.019-1.963-0.003-2.929-0.058
			c-0.11-0.074-0.113-0.148-0.114-0.258c0.049-1.486-0.273-2.889-0.152-4.37c-0.132-1.296-1.369-2.125-1.871-3.302
			c0.291-0.265,0.615-0.789,1.061-0.724c0.564,0.472,0.985,1.244,1.585,1.566c0.184-0.042,0.255-0.154,0.328-0.303
			c0.13-1.04,0.261-2.042,0.466-3.011c0.479-0.155,1.032-0.239,1.589-0.175C243.807,211.361,243.629,211.771,243.638,212.256z"/>
		<path fill="#007DC5" d="M294.745,210.805c0.301,0.404,0.128,0.96,0.061,1.409c-0.812,0.162-1.814-0.007-2.706-0.029
			c-0.191-0.404,0.023-0.778,0.017-1.186C292.889,210.655,293.929,210.784,294.745,210.805z"/>
		<path fill="#007DC5" d="M298.709,210.809c0.267,0.404,0.165,0.924,0.099,1.408c-0.848,0.312-1.96,0.182-2.853,0.053
			c-0.193-0.408-0.053-0.927-0.062-1.373c0.035-0.149,0.185-0.076,0.259-0.117C296.967,210.842,297.893,210.712,298.709,210.809z"/>
		<path fill="#ED1B2F" d="M318.164,211.029c0.703-0.051,1.45,0.307,1.647,1.008c0.463,0.916,0.996,1.795,1.271,2.79
			c-0.072,0.039-0.143,0.191-0.291,0.12c-6.228-0.116-12.379-0.155-18.569-0.307c-0.075,0-0.077-0.109-0.113-0.146
			c0.573-1.121,1.07-2.316,1.981-3.258c0.33-0.191,0.773-0.198,1.181-0.242C309.566,210.918,313.87,211.213,318.164,211.029z"/>
		<path fill="#007DC5" d="M327.053,210.796c0.15,0.219,0.086,0.63,0.054,0.927c-0.63,0.12-1.335-0.013-2,0.071
			c-0.447-0.104-0.345-0.698-0.239-0.995C325.569,210.676,326.348,210.735,327.053,210.796z"/>
		<path fill="#007DC5" d="M330.648,210.958c0.264,0.255,0.162,0.666,0.13,0.962c-0.851,0.088-1.669-0.009-2.52-0.067
			c-0.116-0.224-0.159-0.556-0.089-0.814c0.072-0.113,0.18-0.116,0.293-0.19C329.203,210.909,329.943,210.821,330.648,210.958z"/>
		<path d="M260.072,213.484c0.371,0.106,0.858,0.358,0.867,0.84c0.064,1.518,0.169,3.294-0.103,4.741
			c-0.071,0.152-0.22,0.117-0.33,0.194c-2.814,0.087-5.629,0.246-8.304-0.261c-0.076-0.074-0.227-0.219-0.229-0.369
			c-0.14-1.627,0.019-3.188-0.01-4.815c-0.002-0.149,0.142-0.375,0.326-0.378C254.919,213.315,257.516,213.419,260.072,213.484z"/>
		<path d="M271.821,213.726c0.04,0.111,0.152,0.146,0.19,0.256c0.139,1.593,0.132,3.295-0.101,4.855
			c-0.073,0.113-0.143,0.261-0.291,0.339c-2.442,0.155-4.964,0.012-7.409,0.055c-0.591,0.048-1.3-0.237-1.164-0.944
			c0.122-1.447-0.088-2.852,0.074-4.261c0.14-0.411,0.549-0.342,0.883-0.387C266.634,213.668,269.297,213.361,271.821,213.726z"/>
		<path d="M283.128,214.046c0.151,0.109,0.19,0.219,0.23,0.367c-0.049,1.483,0.044,2.63-0.078,4.077
			c-0.103,0.445-0.395,0.785-0.874,0.83c-2.298-0.032-4.631,0.081-6.894-0.064c-0.373-0.106-0.601-0.436-0.644-0.805
			c0.014-1.369-0.011-2.704,0.04-4.077c0.067-0.332,0.437-0.487,0.731-0.568C278.162,213.911,280.75,213.571,283.128,214.046z"/>
		<path fill="#007DC5" d="M255.529,214.307c0.267,0.439,0.204,1.069,0.212,1.551c-0.961,0.129-1.928-0.074-2.892-0.097
			c-0.045-0.482-0.279-1.145,0.049-1.483C253.788,214.375,254.677,214.246,255.529,214.307z"/>
		<path fill="#007DC5" d="M259.94,214.453c0.194,0.478,0.055,1.036,0.026,1.558c-1.069,0.2-2.111-0.078-3.186-0.058
			c-0.047-0.517-0.247-1.368,0.267-1.67C257.976,214.337,258.977,214.356,259.94,214.453z"/>
		<path fill="#007DC5" d="M267.242,214.547c0.156,0.441,0.093,1.036-0.162,1.336c-0.997,0.203-2.037,0.071-3,0.088
			c-0.339-0.362-0.239-0.995-0.101-1.479c1.001-0.016,1.997-0.256,3-0.087C267.055,214.439,267.166,214.476,267.242,214.547z"/>
		<path fill="#007DC5" d="M271.094,214.479c0.267,0.404,0.202,0.959,0.099,1.409c-0.035,0.109-0.146,0.188-0.255,0.227
			c-0.853-0.06-1.89,0.07-2.633-0.178c-0.194-0.479-0.133-1.146,0.083-1.558C269.316,214.472,270.238,214.272,271.094,214.479z"/>
		<path fill="#007DC5" d="M278.513,214.979c0.009,0.408,0.278,1.07-0.274,1.192c-0.74,0.049-1.591,0.139-2.334,0.003
			c-0.119-0.48-0.016-0.927,0.088-1.373c0.738-0.087,1.552-0.174,2.331-0.077C278.435,214.76,278.438,214.905,278.513,214.979z"/>
		<path fill="#007DC5" d="M282.367,214.986c0.301,0.255,0.049,0.704,0.094,1.073c-0.698,0.459-1.629,0.139-2.443,0.189
			c-0.444,0.046-0.561-0.397-0.605-0.729c-0.042-0.33,0.063-0.63,0.356-0.746C280.66,214.794,281.548,214.744,282.367,214.986z"/>
		<path d="M299.496,215.616c0.114,0.106,0.227,0.217,0.229,0.365c0.024,1.333,0.011,2.669-0.115,3.966
			c-0.319,0.821-1.285,0.614-1.99,0.592c-1.89,0.032-3.892-0.046-5.782-0.198c-0.484,0.009-0.862-0.429-0.724-0.988
			c-0.021-1.221,0.032-2.407,0.123-3.595c0.07-0.149,0.253-0.375,0.474-0.452C294.308,215.445,297.043,215.099,299.496,215.616z"/>
		<path fill="#ED1B2F" d="M303.76,215.796c0.295,1.961-0.115,3.971-0.081,5.971c-0.215,0.374-0.773,0.199-1.107,0.203
			c-0.185-2.109,0.077-4.112,0.116-6.154C302.98,215.699,303.426,215.694,303.76,215.796z"/>
		<path fill="#007DC5" d="M308.171,215.872c-0.103,0.409,0.206,1.182-0.272,1.336c-1,0.02-1.967-0.077-2.967-0.097
			c0.03-0.446-0.13-1.072,0.237-1.336C306.205,215.793,307.168,215.738,308.171,215.872z"/>
		<path fill="#007DC5" d="M313.766,215.845c-0.026,0.56,0.327,1.773-0.753,1.46c-1.187-0.09-2.445,0.007-3.596-0.123
			c-0.046-0.481-0.093-1.073,0.235-1.375C311.023,215.858,312.431,215.758,313.766,215.845z"/>
		<path fill="#007DC5" d="M255.613,217.046c0.19,0.33,0.052,0.74,0.057,1.112c-0.809,0.346-1.851,0.106-2.74,0.048
			c-0.264-0.291-0.236-0.812-0.17-1.221c0.074-0.039,0.109-0.113,0.147-0.113C253.834,216.931,254.759,216.875,255.613,217.046z"/>
		<path fill="#007DC5" d="M294.874,216.139c0.229,0.33,0.162,0.814,0.094,1.147c-0.923,0.125-1.886,0.18-2.851,0.125
			c-0.116-0.333-0.199-0.775-0.094-1.149C292.946,216.1,293.985,216.155,294.874,216.139z"/>
		<path d="M331.545,215.648c0.412,0.104,0.308,0.588,0.351,0.92c0.134,1.257-0.027,2.594-0.156,3.782
			c-0.398,0.523-1.071,0.205-1.699,0.323c-1.852-0.003-3.778-0.005-5.63-0.123c-0.375-0.178-0.531-0.584-0.501-1.027
			c0.051-1.262-0.122-2.554,0.266-3.712C326.503,215.364,329.139,215.616,331.545,215.648z"/>
		<path fill="#007DC5" d="M318.495,217.208c-0.073,0.074-0.186,0.117-0.331,0.117c-1.001-0.094-2.113,0-3.151-0.055
			c-0.154-0.404-0.127-0.963-0.062-1.409c1.074-0.054,2.333-0.113,3.444-0.022C318.479,216.285,318.487,216.728,318.495,217.208z"/>
		<path fill="#007DC5" d="M298.694,216.333c0.115,0.293,0.162,0.775-0.132,1.001c-0.698,0.31-1.59,0.104-2.371,0.006
			c-0.042-0.333-0.126-0.853,0.056-1.15C297.098,216.174,297.913,216.236,298.694,216.333z"/>
		<path fill="#007DC5" d="M259.801,217.012c0.339,0.325,0.162,0.775,0.169,1.22c-0.958,0.275-2.11,0.146-3.111,0.051
			c-0.19-0.365-0.051-0.813-0.058-1.221c0.071-0.148,0.222-0.039,0.294-0.116C258.024,217.043,258.907,216.765,259.801,217.012z"/>
		<path fill="#ED1B2F" d="M320.611,217.505c-0.046,1.483,0.054,3.036-0.105,4.487c-0.221,0.187-0.52,0.044-0.778,0.048
			c-0.11,0.003-0.04-0.145-0.115-0.221c-0.035-1.964,0.04-3.962,0.118-5.93c0.297-0.081,0.592,0.025,0.892,0.023
			C320.854,216.465,320.528,216.949,320.611,217.505z"/>
		<path fill="#007DC5" d="M267.062,216.959c0.228,0.291,0.237,0.772,0.132,1.146c-0.074,0.036-0.146,0.149-0.295,0.113
			c-0.965-0.054-1.999,0.036-2.928-0.097c-0.155-0.365-0.129-0.884,0.054-1.184C265.059,216.882,266.061,216.901,267.062,216.959z"
			/>
		<path fill="#007DC5" d="M271.14,217.108c-0.068,0.374,0.281,1.182-0.274,1.191c-0.893-0.058-1.851,0.108-2.634-0.212
			c-0.008-0.372-0.167-0.96,0.238-1.08C269.322,217.03,270.32,216.827,271.14,217.108z"/>
		<path fill="#007DC5" d="M278.481,217.424c0.154,0.259,0.233,0.627,0.091,0.927c-0.844,0.42-1.74,0.068-2.665,0.12
			c-0.155-0.33-0.125-0.775-0.057-1.112c0.035-0.113,0.146-0.113,0.22-0.152C276.85,217.231,277.771,217.066,278.481,217.424z"/>
		<path fill="#007DC5" d="M282.406,217.247c0.115,0.256,0.123,0.665,0.018,0.962c-0.73,0.57-1.627,0.25-2.514,0.304
			c-0.336,0.003-0.488-0.288-0.457-0.585c0.035-0.227-0.158-0.626,0.137-0.707C280.552,217.131,281.444,217.302,282.406,217.247z"/>
		<path fill="#007DC5" d="M327.082,216.688c0.116,0.333,0.051,0.775-0.057,1.076c-0.664,0.009-1.445-0.087-2.113-0.11
			c-0.08-0.333-0.086-0.739,0.095-1.004C325.709,216.636,326.377,216.663,327.082,216.688z"/>
		<path fill="#007DC5" d="M330.768,217.734c-0.737,0.237-1.666,0.069-2.444,0.043c0.032-0.369-0.167-0.996,0.202-1.15
			c0.705-0.012,1.521,0.009,2.261,0.071C330.867,216.991,330.91,217.438,330.768,217.734z"/>
		<path fill="#007DC5" d="M294.838,218.361c0.229,0.293,0.088,0.74,0.057,1.112c-0.109,0.077-0.22,0.116-0.332,0.081
			c-0.778-0.062-1.629-0.011-2.41-0.107c-0.006-0.368-0.313-0.995,0.128-1.224C293.133,218.207,293.985,218.267,294.838,218.361z"/>
		<path fill="#007DC5" d="M308.101,218.207c0.081,0.368,0.126,0.884-0.015,1.26c-1,0.016-2.073,0.109-3.037,0.016
			c-0.411-0.217-0.24-0.959-0.209-1.366c0.035-0.004,0.035-0.004,0.072-0.039C305.951,218.207,307.062,218.112,308.101,218.207z"/>
		<path fill="#007DC5" d="M298.62,218.407c0.41,0.215,0.124,0.778,0.056,1.11c-0.775,0.162-1.667,0.068-2.445,0.006
			c-0.081-0.293-0.162-0.849,0.017-1.149C297.064,218.472,297.839,218.274,298.62,218.407z"/>
		<path fill="#007DC5" d="M313.737,218.442c0.153,0.293,0.124,0.736,0.057,1.073c-1.329,0.395-2.854,0.087-4.296,0.113
			c-0.448-0.143-0.161-0.775-0.168-1.112c0.072-0.109,0.107-0.187,0.218-0.261C310.957,218.377,312.365,218.315,313.737,218.442z"/>
		<path fill="#007DC5" d="M318.441,218.396c0.194,0.44,0.054,0.964,0.062,1.444c-1.144,0.242-2.406,0.039-3.592,0.062
			c-0.046-0.443-0.056-0.999,0.012-1.444C316.032,218.29,317.292,218.377,318.441,218.396z"/>
		<path fill="#007DC5" d="M327.042,218.691c0.19,0.254,0.089,0.736,0.094,1.033c-0.699,0.271-1.482,0.1-2.261,0.077
			c-0.153-0.328-0.086-0.775,0.019-1.075C325.562,218.717,326.339,218.666,327.042,218.691z"/>
		<path fill="#007DC5" d="M330.899,218.92c-0.032,0.297,0.048,0.627-0.057,0.888c-0.812,0.127-1.707-0.007-2.522-0.067
			c-0.043-0.294-0.236-0.881,0.167-1.001C329.303,218.762,330.153,218.636,330.899,218.92z"/>
		<path fill="#007DC5" d="M307.959,220.655c0.117,0.369,0.238,0.921,0.021,1.295c-0.997,0.129-2.074,0.075-3.075-0.019
			c-0.3-0.291-0.163-0.849-0.132-1.221c0.035-0.074,0.145-0.152,0.22-0.152C305.994,220.577,306.991,220.523,307.959,220.655z"/>
		<path fill="#007DC5" d="M313.592,220.777c0.413,0.252,0.198,0.737,0.206,1.145c-0.072,0.152-0.185,0.116-0.293,0.155
			c-1.374-0.126-2.855,0.013-4.265-0.11c-0.081-0.446-0.09-1.001,0.125-1.375C310.847,220.528,312.146,220.729,313.592,220.777z"/>
		<path fill="#007DC5" d="M318.337,220.842c0.374,0.217,0.089,0.779,0.166,1.108c-1.108,0.168-2.404,0.156-3.554,0.101
			c-0.191-0.33-0.014-0.74-0.02-1.112C315.961,220.625,317.26,220.713,318.337,220.842z"/>
	</g>
</g>
<g>
	<g>
		<path d="M81.674,285.587c0.581,1.549,0.581,3.389,0.97,5.033c2.807,4.55,5.71,9.1,8.81,13.648
			c1.546-1.741,3.484-3.386,4.452-5.516c-0.194-1.647,0.192-3.1,0.096-4.647c0.192-0.291,0.483-0.582,0.773-0.582
			c0.677-0.097,1.26,0.485,1.453,1.065c0.194,1.549,0.098,3.098,0.291,4.646c2.324,2.906,4.355,5.904,6.776,8.711
			c1.549,1.645,0.968,4.161,1.162,6.389c0,4.163,0,8.325,0,12.487c1.354,0.776,3.001,1.551,3.775,3.098
			c1.645,2.518,1.354,5.711,1.743,8.711c-0.099,0.97-0.485,2.036-1.451,2.615c-1.066,0.192-1.938,0.773-3.001,0.968
			c-3.678-0.385-7.261-0.195-11.038,0.099c-2.127-0.39-4.548-0.099-5.904-2.032c-4.065-0.098-8.034,0-12.003,0.288
			c-2.711,0.192-5.518-0.193-8.13-0.098c-1.26,0-1.453-1.352-1.839-2.225c0.872-11.423,1.162-22.651,1.453-34.364
			c2.42-4.453,6.485-8.324,8.711-12.971c0.096-1.744,0.291-3.677,0.581-5.423C79.739,284.329,81.288,284.329,81.674,285.587z"/>
		<path fill="#FFDD00" d="M81.093,293.815c2.033,2.905,4.067,5.711,5.808,8.615c-0.096,0.195-0.288,0.195-0.387,0.292
			c-3.969,0-7.938-0.097-11.809-0.194c0-0.291,0.192-0.485,0.288-0.773c1.938-2.616,3.873-5.326,5.905-7.939
			C80.899,293.815,80.997,293.815,81.093,293.815z"/>
		<path fill="#FFDD00" d="M97.646,302.236c1.26,2.032,3.001,3.775,4.164,5.906c-0.096,0.193-0.387,0.095-0.485,0.193
			c-2.612-0.193-5.613-0.193-8.324-0.389c0-0.096-0.192-0.191-0.192-0.289c1.064-2.034,2.517-3.97,4.356-5.713
			C97.358,302.042,97.452,302.142,97.646,302.236z"/>
		<path fill="#ED1B2F" d="M88.258,305.624c0.096,0.097,0.096,0.194,0.195,0.292c-0.099,4.549,0,9.291-0.389,13.358
			c-0.192,0.193,0.194,0.193,0.096,0.385c0.098,5.519-0.387,11.038-0.677,16.555c0,0.676-0.482,0.969-1.16,0.87
			c-4.747-0.194-9.778,0-14.229-0.194c-0.194-0.097-0.194-0.29-0.292-0.385c0.485-10.359,1.162-20.814,1.258-31.171
			c0.096-0.194,0.389-0.098,0.583-0.194C78.673,305.236,83.417,305.14,88.258,305.624z"/>
		<path fill="#007DC5" d="M103.844,310.95c0.194,0.288,0.194,0.579,0.194,0.965c0,4.55,0.094,9.294-0.098,13.942
			c-0.389,1.548-2.517,0.677-3.679,1.256c-2.615,0.485-5.323,1.063-7.163,3.194c-1.258,1.937-1.549,4.26-2.228,6.391
			c-0.096,0-0.192-0.098-0.192-0.193c0.291-8.229,0.291-16.94,0.387-25.363c0.194-0.775,1.162-0.483,1.743-0.581
			C96.484,310.465,100.261,310.755,103.844,310.95z"/>
		<path fill="#FFDD00" d="M108.007,331.179c0.19,0.389,0.096,0.97-0.197,1.259c-1.645,1.838-4.161,1.26-6.291,1.745
			c-2.226,0.385-5.228,1.063-6.971-0.681c-0.096-0.776,0-1.646,0.581-2.226c2.13-2.614,5.809-1.55,8.714-2.225
			C105.584,329.051,106.938,329.92,108.007,331.179z"/>
		<path fill="#FFDD00" d="M109.263,334.665c0.096,1.355,0.872,2.518,0.389,3.874c-2.228,1.546-5.421,1.063-8.132,1.16
			c-2.42,0.095-5.905,1.159-7.744-0.873c0.096-0.58-0.195-1.355,0.192-1.742c2.807,0.681,6.003,0.099,8.713-0.385
			c2.322,0,4.548-0.485,6.292-2.034C109.069,334.665,109.165,334.665,109.263,334.665z"/>
	</g>
	<g>
		<g>
			<path d="M300.398,259.123c0.748-1.262,1.072-2.735,0.979-4.209c-0.815-3.382-4.281-5.2-7.115-6.591
				c-1.368-0.538-2.64,0.189-3.594,1.025c-1.812,2.623-4.047,5.135-5.754,7.758c-0.528,0.312-1.159-0.01-1.684-0.33
				c-0.734-0.64-2.416-1.179-2.089-2.441c2.78-5.039,5.77-9.971,8.654-15.01c0.644-1.366,1.391-2.731,1.298-4.311
				c-0.394-3.483-4.176-5.307-7.013-6.171c-1.894-0.541-3.589,0.396-4.865,1.755c-2.454,3.987-4.807,7.975-7.472,11.854
				c-1.271,1.046-2.443,2.197-4.023,2.501c-0.216,0.104-0.421-0.213-0.313-0.424c1.082-3.681,5.003-6.394,3.982-10.618
				c-1.036-2.433-3.557-3.718-5.765-4.262c-1.896-0.542-3.587,0.077-4.967,1.332c-1.704,2.308-2.99,4.933-4.904,7.133
				c-0.847,0.202-1.901,0.195-2.539,1.033c-2.242,3.674-4.171,7.456-6.623,11.125c-3.688-0.345-7.691-0.693-11.481-1.142
				c-0.318-0.005-0.737-0.112-0.737-0.43c0.058-7.483-0.304-15.077-4.266-21.01c-0.516-1.165-1.773-2.124-1.975-3.39
				c1.087-4.209,4.28-8.087,2.523-12.843c-0.305-1.479-1.985-2.334-2.713-3.605c-0.396-3.376-0.054-6.958-0.975-10.129
				c-1.029-3.381-0.683-7.385-3.825-9.727c-1.05-0.854-2.74-0.339-4.004-0.453c-6.654,1.317-12.371,4.752-18.09,8.082
				c-0.426,0.313-0.954,0.414-1.266-0.012c-2.805-5.607-8.237-11.871-14.989-11.5c-5.287,1.963-8.279,7.529-10.111,12.256
				c-0.542,2.314-3.166,0.713-4.854,0.912c-4.003-0.453-8.325-0.487-12.44-0.096c-2.425-0.021-4.646,0.808-7.069,0.684
				c-4.29-4.461-9.217-7.979-14.359-10.866c-1.68-0.856-3.253-2.134-5.04-2.78c-2.635,0.084-4.761,1.965-6.46,3.851
				c-5.637,6.386-6.335,14.816-6.509,23.46c-1.276,1.783-2.663,3.459-3.941,5.24c-6.382,7.542-8.562,16.803-9.587,26.601
				c-0.448,3.159,0.057,6.219,0.14,9.277c-0.638,0.737-1.693,0.62-2.537,1.035c-4.118,0.496-8.025,1.52-11.731,3.179
				c-1.478,0.727-3.376,0.606-4.44,1.967c-0.32,0.316-0.217,0.947-0.011,1.267c0.421,0.422,1.05,0.534,1.579,0.434
				c4.76-1.967,9.416-3.934,14.583-4.736c1.057,0.006,2.327-0.616,3.164,0.235c0.51,2.322,1.441,4.333,2.059,6.551
				c0.412,1.162,1.352,2.226,1.553,3.491c-0.744,0.733-1.8,1.147-2.752,1.349c-3.708,2.187-8.14,2.785-11.324,5.712
				c-0.217,0.631-0.009,1.265,0.41,1.69c0.313,0.213,0.734,0.112,1.052,0.007c1.485-1.146,2.97-2.084,4.66-2.811
				c2.748-0.717,5.184-2.385,8.037-3.206c0.423-0.206,1.27-0.412,1.688-0.094c1.778,2.23,3.658,4.143,5.541,6.159
				c0.629,0.533,0.307,1.269-0.329,1.686c-2.651,1.982-5.616,3.436-7.954,6.053c-0.218,0.735-0.011,1.476,0.62,1.903
				c1.153,0.641,1.587-1.042,2.331-1.669c2.649-1.772,5.193-3.544,7.739-5.527c0.21,0.001,0.631,0.004,0.844,0.004
				c2.622,1.707,5.349,3.312,8.083,4.597c6.405,3.002,13.565,4.112,20.728,5.329c0.208,0.104,0.417,0.318,0.521,0.529
				c0.096,1.266-0.018,2.424-0.029,3.899c0.24,9.702-7.822,16.072-11.468,24.16c-0.547,2.422-1.515,4.733-1.114,7.689
				c-0.853,1.152-2.226,1.458-3.39,2.187c-4.342,2.285-10.555,1.499-13.438,6.326c-0.65,2.105-0.668,4.633,0.371,6.541
				c1.459,2.119,3.557,3.402,6.09,3.315c7.373,0.792,13.513-2.213,20.266-3.11c3.784,1.294,7.893,1.851,12.106,2.306
				c7.691,0.481,15.812,0.017,23.51-0.136c2.001,0.229,3.697-0.708,5.696-0.27c2.212,0.334,3.699-1.344,5.698-0.906
				c2.956-0.504,6.118,0.046,9.07-0.141c3.372,0.132,6.338-1.741,7.943-4.681c2.556-3.567,1.752-8.53,2.522-12.739
				c1.891,0.856,3.565,2.77,5.883,2.784c3.584-0.074,4.143-3.97,5.845-6.173c0.319-0.418,0.643-1.26,1.273-1.147
				c5.134,4.464,10.479,8.725,15.501,13.297c-0.105,0.103,0.104,0.214-0.002,0.316c-0.752,1.785-1.818,3.465-2.464,5.253
				c-0.435,1.468-0.556,3.472,0.808,4.643c2.515,2.023,5.131,4.15,7.968,5.546c1.579,0.326,2.849-0.191,3.91-1.238
				c7.485-13.33,14.862-26.769,22.556-40.096c0.318-0.21,0.632,0.215,0.734,0.427c1.4,9.92,2.8,19.843,3.882,29.864
				c0.197,1.797,0.604,3.593,1.858,5.076c2.205,1.073,5.477,0.782,7.801,0.061c0.954-0.521,1.697-1.464,1.812-2.516
				c-1.775-15.721-3.868-31.344-6.067-46.962c-0.203-1.056-0.404-2.427,0.028-3.479C289.18,278.221,295.052,268.779,300.398,259.123
				z M220.409,296.035c-0.424,0.419-1.058,0.415-1.586,0.726c-1.814,2.621-3.311,5.35-4.911,7.974
				c-1.172,1.571,1.033,2.644,0.389,4.221c-0.961,1.469-1.501,3.256-2.777,4.51c0,0-0.105,0.104-0.104,0
				c-1.239-3.594-4.056-7.624-8.054-8.39c-0.31-0.74,0.326-1.369,0.334-2.106c0.324-0.947,0.75-1.892,1.18-2.942
				c1.276-1.151,3.287-2.295,2.668-4.198c-0.417-0.528-0.941-0.955-1.68-0.749c-1.162,0.2-2.118,1.248-3.28,1.662
				c-5.175,0.908-11.384-0.51-16.039,1.667c-0.213,0.103-0.317-0.003-0.526-0.109c-1.245-2.856-2.591-5.713-3.729-8.674
				c0.954-0.625,2.114-0.616,3.168-0.714c2.532,0.125,4.963-0.804,7.6-0.891c6.749-0.475,12.983-2.114,19.116-4.281
				c6.552-2.268,13.131-7.699,16.448-14.105c0.428-0.521,1.267-0.306,1.688-0.198c1.263,0.431,2.631,0.865,3.784,1.717
				c0.208,0.001,0.103,0.21,0.208,0.318C229.812,279.767,225.112,287.847,220.409,296.035z M235.479,269.373
				c-0.842-0.006-1.366-0.538-1.997-0.753c-1.05-0.43-1.997-0.86-3.152-1.079c-0.211-0.108-0.211-0.319-0.313-0.531
				c0.86-2.207,2.036-4.306,2.688-6.619c0.639-0.839,1.794-0.198,2.744-0.297c0.104,0.107,0.104,0.107,0.21,0.214
				c0.104-0.105,0.21-0.105,0.315-0.208c1.368,0.538,3.162,0.235,4.102,1.296C238.79,264.127,237.292,266.855,235.479,269.373z
				 M241.251,259.403c-2.422-0.547-4.841-1.092-7.366-1.43c-0.842-0.743-0.198-2.004-0.295-2.954c0.43-1.05,0.126-2.635,1.08-3.363
				c3.477,0.025,6.954,0.158,10.219,0.919c0.105,0,0.103,0.213,0.208,0.317C243.919,255.1,242.851,257.308,241.251,259.403z"/>
			<g>
				<path fill="#ED1B2F" d="M195.16,193.576c1.244,2.749,3.122,5.399,3.205,8.563c-0.641,0.945-2.014,1.039-2.86,1.666
					c-1.159-0.009-1.679-1.174-2.731-1.499c-1.367-0.431-3.367-0.656-4.639,0.177c-1.165,0.729-1.91,1.882-1.816,3.254
					c0.092,1.794,0.181,3.798,1.965,4.759c0.731,0.534,1.578,0.435,2.098,1.176c-0.007,1.055-0.119,2.002-0.441,2.949
					c-2.857,0.926-5.71,2.169-9.084,1.828c-1.679-0.436-3.896-0.453-4.617-2.567c-1.869-3.915,0.274-8.327,0.414-12.542
					c1.292-3.682,1.851-7.577,4.509-10.719c1.487-1.466,2.558-3.566,4.775-3.652C189.834,187.208,192.973,190.394,195.16,193.576z"
					/>
				<path fill="#FFFFFF" d="M131.213,187.493c3.258,1.502,6.19,3.947,9.125,5.869c2.83,2.339,5.765,4.579,8.274,7.337
					c1.679,0.857,3.482-0.288,5.376-0.167c3.905-0.289,7.911-0.259,11.603-0.44c2.635-0.191,4.95,0.461,7.266,1.005
					c0.942,0.851,0.194,2.321,0.185,3.482c-0.878,4.527-1.558,10.425,2.846,13.41c4.303,2.669,9.8,0.814,14.131-0.312
					c1.476,0.01,1.777,1.909,2.933,2.66c3.031,3.184,7.027,4.588,11.352,4.303c0.315,0.11,0.421,0.323,0.523,0.535
					c1.235,3.908,2.462,8.767,6.877,10.488c6,1.207,10.258-4.032,14.293-7.796c1.055,0.114,1.256,1.275,1.778,1.911
					c3.33,5.507,3.596,12.362,3.225,19.106c-0.741,0.416-1.896-0.118-2.848,0.19c-1.478,0.094-3.059,0.081-4.018,1.443
					c-0.107,0.422,0.312,0.743,0.627,0.955c2,0.332,4.008-0.389,6.008,0.153c0.089,1.792-0.347,3.792-0.782,5.579
					c-1.277,1.468-3.8,0.499-5.594,1.014c-0.528,0.206-0.746,0.837-0.433,1.263c1.251,1.694,3.27-0.083,4.95,0.564
					c0.628,0.636-0.113,1.368-0.227,2.106c-0.643,1.259-0.866,2.733-2.031,3.569c-2.319,0.193-5.051-1.197-6.753,0.58
					c-0.107,0.529,0.31,1.058,0.835,1.272c1.472,0.432,3.268,0.025,4.525,0.878c-0.864,2.947-3.201,5.141-5.539,7.44
					c-8.063,6.582-18.197,8.294-28.643,9.48c-9.081,1.616-19.194,0.589-28.471,0.305c-7.27-0.265-14.115-1.585-21.169-2.482
					c-5.367-1.518-11.052-2.404-15.876-5.499c-1.05-0.749-2.313-1.179-3.148-2.241c0.32-0.523,1.165-0.623,1.801-1.146
					c0.533-0.416,1.379-1.042,0.965-1.89c-2.093-2.125-3.912,1.447-6.124,1.007c-1.885-1.594-3.345-3.505-5.017-5.416
					c-0.101-0.631,0.744-0.731,1.165-0.834c1.162-0.096,2.535-0.403,3.07-1.663c0.11-0.631-0.412-1.163-0.938-1.376
					c-1.583,0.198-3.166,0.606-4.854,0.804c-0.945-0.533-1.253-1.589-1.878-2.543c-0.615-2.324-1.757-4.652-1.841-7.183
					c1.903-0.83,4.324-0.179,6.323-0.057c0.528-0.103,1.059-0.309,1.274-0.938c0.11-0.634-0.307-1.268-0.936-1.483
					c-2.104-0.755-4.639-0.143-6.853-0.16c-0.316-0.002-0.421-0.317-0.524-0.425c-1.114-5.809-0.535-12.445,0.878-18.022
					c1.428-7.581,5.484-13.977,10.697-19.843c1.066-1.573,4.024-2.288,3.406-4.506c-0.304-1.161-2.208-0.755-1.88-2.123
					c0.046-5.799,1.455-10.954,4.232-15.676C126.974,190.412,128.477,186.942,131.213,187.493z"/>
				<path fill="#FFFFFF" d="M222.172,190.831c1.252,1.908,1.549,4.23,2.058,6.449c0.718,2.851,0.692,6.118,0.667,9.071
					c-0.002,0.423-0.423,0.629-0.741,0.626c-4.102-1.086-8.432-0.171-12.756-0.098c-1.047-0.641-1.882-1.913-2.93-2.659
					c-1.885-1.597-4.415-1.72-6.836-2.267c-0.311-0.844-0.828-2.011-0.189-2.848c5.724-4.066,11.758-7.394,18.519-8.923
					C220.807,190.189,221.65,190.088,222.172,190.831z"/>
				<path fill="#ED1B2F" d="M193.064,205.682c-0.007,1.16-0.963,1.89-1.602,2.728c-0.739,0.205-1.478-0.01-2.002-0.541
					c-0.414-0.742-0.299-1.794-0.292-2.638c0.215-0.631,0.953-0.837,1.482-1.148C191.708,204.092,192.545,204.835,193.064,205.682z"
					/>
				<path fill="#ED1B2F" d="M209.062,209.391c1.446,3.701,0.567,8.018-2.401,10.63c-1.698,1.251-3.812,1.975-6.129,1.533
					c-2.944-0.865-6.197-3.105-7.332-6.064c-0.81-4.226,1.748-7.79,5.139-9.977c2.117-1.039,5.279-0.908,7.274,0.267
					C207.081,206.53,208.439,208.016,209.062,209.391z"/>
				<path fill="#ED1B2F" d="M225.922,210.575c1.89,0.86,2.294,2.972,2.07,4.866c-1.005,7.057-5.486,13.98-12.154,17.408
					c-0.952,0.413-2.111,0.509-3.062,0.292c-3.674-1.925-3.957-6.04-5.092-9.423c0.01-1.055,1.066-1.573,1.81-2.093
					c0.741-0.311,1.155,0.433,1.789,0.541c1.681,0.224,3.686,0.659,4.959-0.806c0.959-1.045,1.497-2.519,1.087-3.891
					c-0.725-1.798-2.614-2.869-4.403-3.409c-0.729-1.059-0.298-2.533-0.497-3.8c1.062-1.044,2.745-0.716,4.011-1.022
					C219.815,209.369,223.083,209.393,225.922,210.575z"/>
				<path fill="#ED1B2F" d="M214.579,218.289c-0.004,0.742-0.432,1.368-1.065,1.574c-0.739-0.006-1.579-0.224-1.995-0.963
					c0.005-0.844,0.225-1.79,1.07-2.208C213.431,216.804,214.269,217.655,214.579,218.289z"/>
				<path fill="#ED1B2F" d="M288.677,234.257c0.181,4.111-3.109,6.932-4.612,10.4c-0.646,1.368-1.496,2.521-2.455,3.778
					c-0.317,0.207-0.844,0.097-1.055-0.116c-1.992-1.281-3.985-2.666-5.978-3.841c-0.418-0.32-0.206-0.846-0.201-1.267
					c2.245-3.883,4.275-7.874,7.049-11.541c0.423-0.525,0.954-0.836,1.585-0.936C285.222,231.171,287.641,232.139,288.677,234.257z"
					/>
				<path fill="#ED1B2F" d="M268.751,234.311c0.416,0.742,0.194,1.899-0.126,2.635c-1.178,2.204-2.459,4.304-3.74,6.509
					c-0.425,0.627-1.16,0.094-1.581-0.224c-1.677-1.174-3.25-2.345-4.822-3.519c-0.521-0.53,0.009-1.157,0.119-1.578
					c1.491-1.993,2.354-4.303,4.264-6.083C265.193,230.911,267.287,232.615,268.751,234.311z"/>
				<path fill="#FFDD00" d="M263.595,246.818c0.523,0.319,0.728,1.06,0.513,1.586c-0.433,1.368-1.812,2.621-1.085,3.997
					c3.672,2.664,7.231,5.643,11.331,7.256c1.896,0.332,3.072-1.874,4.968-1.753c2.414,1.389,4.825,3.094,7.131,4.8
					c0.527,0.32,0.732,0.954,0.412,1.584c-5.454,9.868-11.539,19.625-17.098,29.491c-5.557,9.656-10.903,19.422-16.773,28.863
					c-0.319,0.315-0.64,0.523-1.059,0.309c-3.875-3.086-7.647-6.384-11.523-9.684c-5.97-4.894-11.836-9.789-17.701-14.79
					c-0.417-0.53,0.01-1.159,0.222-1.685c4.386-7.874,9.082-15.533,13.257-23.41c1.162-0.622,2.315,0.44,3.26,0.977
					c1.153,0.958,2.089,2.651,3.674,2.137c0.634-0.313,0.112-0.95-0.096-1.373c-1.251-1.803-3.137-3.397-4.813-4.571
					c0.003-0.314,0.003-0.423,0.112-0.736c1.389-2.624,2.675-5.25,4.488-7.662c2.421,0.335,4.519,1.723,6.836,2.055
					c0.317-0.209,0.531-0.522,0.32-0.84c-1.565-1.805-4.096-1.93-5.771-3.418c0.004-0.421,0.006-0.739,0.222-1.052
					c1.171-1.783,1.82-3.782,3.204-5.561c0.533-0.842,2.423,0.016,2.227-1.461c-0.842-0.534-0.73-1.375-0.303-2.11
					c1.812-2.622,2.997-5.563,4.704-8.188c0.213-0.207,0.636-0.31,1.057-0.201C258.033,243.295,260.761,245.002,263.595,246.818z"/>
				<path fill="#FFDD00" d="M272.459,245.832c2.411,1.495,4.933,2.884,7.023,4.905c0.723,1.904-1.919,2.833-3.089,3.982
					c-0.318,0.314-0.949,0.203-1.265-0.01c-2.727-1.709-5.664-3.523-8.073-5.651c0.22-1.158,1.59-1.358,2.336-2.088
					C270.343,246.552,271.194,245.401,272.459,245.832z"/>
				<path d="M258.216,246.988c0.207,0.634,0.094,1.37-0.12,1.894c-0.531,0.526-1.167,1.048-1.904,0.937
					c-0.844-0.113-1.578-0.644-1.888-1.384c-0.207-0.636,0.115-1.266,0.436-1.792C255.59,245.702,257.699,245.613,258.216,246.988z"
					/>
				<path d="M136.848,249.739c1.988,1.806,1.121,4.963,1.1,7.387c-0.325,1.264-1.496,2.519-2.969,2.612
					c-0.952,0.099-1.899-0.119-2.525-0.757c-2.409-1.917-2.279-5.395-1.625-8.027c0.43-1.366,1.913-2.091,3.182-2.293
					C135.171,248.46,136.008,249.1,136.848,249.739z"/>
				<path fill="#FFDD00" d="M274.594,255.864c0.208,0.318,0.523,0.638,0.307,1.058c-0.426,0.628-1.053-0.01-1.579-0.225
					c-2.408-1.917-5.248-3.098-7.656-5.119c0.002-0.314-0.206-0.53,0.007-0.843c0.107-0.421,0.634-0.311,0.949-0.098
					C269.35,252.24,271.864,254.157,274.594,255.864z"/>
				<path fill="#ED1B2F" d="M298.642,254.575c0.416,0.845,0.194,2.109-0.131,2.95c-14.742,25.189-29.591,50.375-43.495,75.994
					c-2.134,3.354-3.742,6.822-5.981,10.074c-0.318,0.314-0.952,0.413-1.373,0.202c-2.311-1.075-4.406-2.882-6.501-4.479
					c-1.465-1.595,0.341-3.267,0.774-4.74c0.426-0.524,0.959-1.47,1.693-1.039c1.997,1.171,3.553,4.453,6.197,3.208
					c0.949-0.412,1.697-1.462,2.233-2.407c1.39-2.73,3.938-5.133,3.964-8.295c-0.945-0.748-0.513-1.903,0.021-2.742
					c4.495-8.4,10.038-16.477,14.323-24.981c6.835-11.649,13.673-23.196,20.09-34.952c0.119-2.107-2.194-2.759-3.026-4.134
					c0.862-2.525,2.462-4.726,3.848-7.037c0.535-0.732,1.171-1.255,2.016-1.354C295.612,250.861,297.497,252.669,298.642,254.575z"
					/>
				<path d="M206.935,252.493c1.985,2.335,1.536,5.918,0.252,8.438c-0.429,0.734-1.275,1.044-2.012,1.249
					c-1.478-0.01-2.738-0.654-3.465-1.924c-1.248-2.434-1.115-6.018,0.8-8.218C203.782,251.206,205.999,250.904,206.935,252.493z"/>
				<path d="M280.44,263.078c0.207,0.739,0.199,1.583-0.227,2.108c-0.32,0.628-0.956,0.94-1.695,0.933
					c-0.525-0.002-1.047-0.535-1.36-0.958c-0.312-0.951,0.016-2.107,0.759-2.735C278.661,261.694,280.135,261.917,280.44,263.078z"
					/>
				<path d="M177.325,263.967c0.522,1.164,0.716,2.959-0.343,3.9c-2.654,1.981-6.763,1.527-9.597,0.242
					c-0.943-0.64-1.359-1.698-1.458-2.753c0.012-1.372,0.973-2.839,2.242-3.462C171.235,261.075,175.452,261.107,177.325,263.967z"
					/>
				<path fill="#FFDD00" d="M175.529,264.797c0.206,0.423,0.306,1.056,0.094,1.478c-1.173,1.465-3.28,1.238-5.175,1.118
					c-0.949-0.218-2.107-0.542-2.626-1.495c-0.101-0.529-0.41-1.271,0.014-1.792c1.8-1.146,4.646-0.912,6.646-0.369
					C174.902,263.948,175.321,264.479,175.529,264.797z"/>
				<path fill="#007DC5" d="M162.375,288.735c1.05,0.533,0.616,2.112,1.24,3.064c0.412,1.375,1.142,2.644,1.551,3.915
					c-2-0.227-3.995-1.51-6.424-0.894c-2.743,0.188-5.184,2.7-6.049,5.222c-0.75,1.578-0.556,3.582-0.567,5.269
					c0.595,4.645,3.308,8.354,5.49,12.377c0.105,0.107,0.103,0.317-0.002,0.424c-1.171,1.464-4.234,1.967-3.301,4.294
					c2.804,5.082,6.037,9.957,9.585,14.729c0.416,0.423,1.048,0.747,1.681,0.54c7.842-5.208,15.369-10.422,23.104-15.527
					c0.634,0.109,0.521,0.952,0.622,1.479c0.284,4.219,0.039,8.541,0.535,12.656c0.206,0.74-0.645,1.261-1.171,1.361
					c-10.448,1.395-21.093,0.787-31.845,0.704c-4.108-0.559-8.427-0.804-11.461-3.883c-4.085-3.617-6.788-8.489-6.005-14.069
					c0.354-5.268,4.601-8.926,7.06-13.23c3.836-5.452,5.678-11.763,5.31-18.832c0.107-0.313,0.425-0.416,0.744-0.414
					C155.952,287.733,158.896,288.81,162.375,288.735z"/>
				<path fill="#FFFFFF" d="M177.762,289.378c1.677,1.386,2.187,3.707,3.436,5.51c0.725,1.799,1.767,3.491,2.174,5.395
					c0,0.21,0,0.314-0.216,0.524c-1.589,1.252-3.495,2.082-5.087,3.441c-1.476,0.094-2.629-0.97-3.995-1.507
					c-4.829-2.567-7.004-7.646-8.338-12.402c-0.208-0.42-0.099-0.947,0.117-1.265c0.21-0.101,0.316-0.101,0.526-0.204
					C170.176,289.11,173.974,288.717,177.762,289.378z"/>
				<path fill="#ED1B2F" d="M281.781,294.296c0.489,5.062,1.503,10.027,1.886,15.194c1.088,9.18,2.598,18.261,3.582,27.544
					c-0.005,0.631-0.535,1.156-0.961,1.471c-1.268,0.306-2.958,0.714-4.216,0.069c-1.572-1.171-1.453-2.96-1.649-4.754
					c-1.182-10.869-2.787-21.53-3.967-32.396c0.002-0.423,0.109-0.739,0.217-1.052c1.283-2.311,2.462-4.623,3.851-6.823
					C281.163,292.604,281.788,293.663,281.781,294.296z"/>
				<path d="M230.849,295.589c0.419,0.529,0.518,1.27,0.408,1.898c-0.218,0.632-0.749,1.474-1.595,1.782
					c-0.634,0.206-1.266-0.114-1.684-0.435c-0.524-0.426-0.729-0.955-0.831-1.59c0.323-0.84,0.439-2.104,1.598-2.306
					C229.591,294.841,230.221,295.266,230.849,295.589z"/>
				<path fill="#FFFFFF" d="M168.275,302.694c-0.002,0.212,0.103,0.421-0.002,0.528c-3.605,2.713-7.419,5.003-11.232,7.609
					c-0.632-0.32-0.943-1.272-1.253-1.908c-1.135-3.171-1.626-7.812,1.029-10.429c1.279-1.465,3.175-1.345,4.964-1.015
					C164.519,298.133,166.818,300.366,168.275,302.694z"/>
				<path fill="#FFDD00" d="M202.036,299.582c0.632,0.533,0.097,1.477-0.016,2.109c-1.293,3.468-2.373,6.942-3.875,10.301
					c-0.104,0-0.211-0.001-0.316-0.106c-2.604-3.816-5.105-7.737-7.288-11.655c0.11-0.313,0.424-0.206,0.636-0.311
					C194.867,299.844,198.243,299.235,202.036,299.582z"/>
				<path fill="#ED1B2F" d="M220.694,300.253c10.372,8.201,20.529,17.029,30.797,25.647c0.416,0.635,1.36,1.065,0.931,2.009
					c-0.961,1.785-1.924,3.571-2.99,5.354c-0.32,0.211-0.952,0.204-1.265-0.009c-10.476-9.042-20.737-17.871-31.318-26.706
					c0.335-2.315,2.142-4.199,3.212-6.194C220.271,300.146,220.587,300.253,220.694,300.253z"/>
				<path fill="#ED1B2F" d="M187.898,301.266c2.813,4.131,5.628,8.266,8.019,12.606c-0.105,0.107-0.211,0.21-0.213,0.318
					c-9.859,6.986-19.923,13.337-29.883,20.01c-0.108,0-0.318,0.101-0.423-0.004c-3.137-3.504-5.321-7.318-7.716-11.128
					c-0.521-0.744,0.011-1.477,0.752-1.895c2.13-2.621,3.15,1.606,4.937,2.251c2.514,2.234,5.879,3.313,9.155,2.287
					c2.327-0.721,4.871-2.705,5.627-5.019c0.54-1.68,0.451-3.685,0.147-5.373c1.168-1.153,1.393-2.943,1.089-4.528
					c-0.414-1.056-1.357-1.906-1.453-3.067c3.18-2.191,6.256-4.591,9.54-6.462C187.581,301.264,187.792,301.264,187.898,301.266z"/>
				<path fill="#007DC5" d="M175.211,305.806c0.101,0.529-0.536,0.837-0.957,0.94c-0.423,0.104-0.949-0.113-1.155-0.535
					c0.002-0.422-0.521-0.848-0.204-1.266C173.743,305.056,174.582,305.275,175.211,305.806z"/>
				<path fill="#FFFFFF" d="M170.773,307.247c0.309,0.636,0.515,1.374,1.146,1.698c1.793-0.197,3.9-0.182,4.836,1.405
					c0.521,0.85,0.62,1.905,0.402,2.852c-0.327,1.158-2.44,1.773-1.608,3.15c0.519,1.272,0.824,2.958,0.181,4.219
					c-1.386,1.885-3.399,3.029-5.717,2.907c-2.738-0.338-5.367-1.413-7.247-3.745c-1.67-2.121-3.761-4.143-4.587-6.679
					c0-0.104,0.002-0.212,0.11-0.315c3.603-2.715,7.316-5.215,11.127-7.506C170.258,305.556,170.354,306.612,170.773,307.247z"/>
				<path fill="#FFFFFF" d="M208.362,313.443c1.224,5.177,1.914,11.4,0.502,16.766c-0.759,2.843-2.896,6.302-6.166,6.596
					c-3.06,0.292-6.115,0.161-9.172-0.179c-1.153-0.536-0.404-2.112-0.924-3.171c-0.284-4.216-0.143-8.749-0.636-12.97
					c0.002-0.21,0.004-0.528,0.217-0.631c2.226-1.776,4.66-3.232,6.993-4.9c1.491-1.885,1.723-4.31,2.898-6.408
					c0.952-0.521,2.002-0.092,2.736,0.336C206.383,310.263,207.531,311.751,208.362,313.443z"/>
				<path fill="#ED1B2F" d="M222.687,315.134c0.526,0.428,0.202,1.055-0.014,1.476c-0.96,1.785-2.134,3.569-3.098,5.353
					c-0.428,0.629-1.061,0.733-1.795,0.62c-2.206-1.073-5.038-3.097-5.333-5.735c0.105-0.211,0.11-0.526,0.323-0.735
					c1.489-1.886,2.667-3.986,4.154-5.765c0.212,0,0.527,0.106,0.631,0.213C219.23,312.157,221.013,313.541,222.687,315.134z"/>
				<path d="M253.364,315.581c0.309,0.532,0.517,1.167,0.302,1.796c-0.43,0.841-1.278,1.571-2.229,1.669
					c-0.736-0.216-1.471-0.749-1.782-1.49c-0.203-0.527-0.409-1.269,0.015-1.896c0.32-0.314,0.538-1.049,1.063-1.149
					C251.788,314.622,252.948,314.42,253.364,315.581z"/>
				<path fill="#FFFFFF" d="M137.399,328.391c1.139,2.75,2.91,5.188,4.896,7.523c0,0.106-0.105,0.21-0.107,0.318
					c-3.809,1.759-8.135,2.36-12.358,3.063c-2.638,0.193-5.909,0.587-7.472-1.849c-0.833-1.376-0.816-3.486,0.039-4.85
					c1.702-1.989,4.232-2.075,6.556-2.69c2.537-0.824,5.282-1.328,7.403-2.79C137.198,327.02,137.083,327.967,137.399,328.391z"/>
			</g>
		</g>
		<path fill="#ED1B2F" d="M165.706,289.025c0,0.19-0.325,0.268-0.085,1.144c0.092,0.336,0.41,1.24,0.41,1.24l13.358,0.032
			c-0.199-0.452-0.808-1.485-0.975-1.57c-0.167-0.083-0.423-0.548-0.975-0.634C176.888,289.152,165.706,288.305,165.706,289.025z"/>
		<path fill="#ED1B2F" d="M166.978,294.15c0,0,0.887,2.148,1.101,2.317l13.78-0.114c0,0-0.67-1.673-1.093-2.224L166.978,294.15z"/>
		<path fill="#ED1B2F" d="M169.773,299.127l13.195-0.233c0,0,0.359,0.953,0.465,1.377c0.107,0.423-0.382,0.657-0.382,0.657
			l-11.162,0.339C171.638,301.268,170.197,299.638,169.773,299.127z"/>
		<path fill="#ED1B2F" d="M156.004,309.441c0.087,0.17,0.542,1.338,1.036,1.39c0,0,10.53-6.642,11.248-7.446
			c0.551-0.467-0.167-1.017-0.505-1.524L156.004,309.441z"/>
		<path fill="#ED1B2F" d="M155.329,307.494l11.265-6.99c-0.508-0.507-0.929-0.93-1.059-1.1l-10.59,6.607
			C155.073,306.563,155.329,307.494,155.329,307.494z"/>
		<path fill="#ED1B2F" d="M154.86,304.062l9.194-5.718c-0.849-0.55-1.4-0.677-1.654-0.763l-7.415,4.576
			C154.819,302.623,154.86,304.062,154.86,304.062z"/>
	</g>
</g>
<g>
	<g>
		<path fill="#007DC5" d="M288.997,52.509c3.175,0,5.641,2.466,5.641,5.54c0,3.142-2.466,5.574-5.675,5.574
			c-3.175,0-5.707-2.432-5.707-5.574c0-3.074,2.532-5.54,5.707-5.54H288.997z M288.931,53.624c-2.434,0-4.258,1.993-4.258,4.425
			c0,2.466,1.824,4.425,4.324,4.425c2.431,0.034,4.222-1.958,4.222-4.425c0-2.432-1.791-4.425-4.256-4.425H288.931z M288.085,60.919
			h-1.283v-5.505c0.506-0.102,1.215-0.203,2.129-0.203c1.046,0,1.519,0.168,1.925,0.439c0.304,0.236,0.54,0.676,0.54,1.182
			c0,0.642-0.474,1.115-1.148,1.318v0.067c0.54,0.169,0.845,0.607,1.014,1.351c0.167,0.844,0.27,1.183,0.404,1.351h-1.385
			c-0.169-0.203-0.27-0.675-0.438-1.316c-0.102-0.608-0.44-0.878-1.148-0.878h-0.608V60.919z M288.119,57.812h0.607
			c0.709,0,1.284-0.236,1.284-0.811c0-0.507-0.373-0.844-1.183-0.844c-0.338,0-0.575,0.034-0.709,0.067V57.812z"/>
	</g>
	<g>
		<g>
			<g>
				<path fill="none" stroke="#FFFFFF" stroke-width="8" d="M286.354,77.282c-0.301,1.383-0.773,2.695-1.281,3.977
					c-1.175,3.062-3.095,5.826-5.253,8.451c-2.493,2.833-5.321,5.221-8.316,7.343c-3.806,2.561-7.848,4.448-12.26,5.492
					c-2.998,0.639-6.401,0.671-9.164-0.574c-1.915-0.707-3.602-2.054-5.216-3.469c-1.651-1.516-2.898-3.266-3.977-5.084
					c-0.1-0.169-0.301-0.102-0.405-0.035c-2.964,1.348-6.029,2.391-9.09,3.367c-3.134,0.979-7.011,0.675-9.193-1.949
					c-0.342-0.373-0.543-0.811-0.878-1.148c-0.137,0-0.27,0-0.335,0.034c-3.001,1.214-5.998,2.459-9.195,3.131
					c-2.428,0.539-4.954,0.069-6.874-1.211c-0.974-0.806-1.853-1.751-2.224-2.864c-0.67-1.851-0.536-3.905-0.503-5.858
					c0.103-3.232,0.439-6.431,0.539-9.699c-0.036-0.473-0.235-0.978-0.742-1.146c-0.673-0.236-1.479-0.102-2.189-0.034
					c-0.469,0.066-0.977,0.066-1.447,0.167c-0.065,0-0.1,0.066-0.134,0.136c-1.451,5.287-3.065,10.54-5.825,15.289
					c-1.381,2.326-3.673,5.152-6.469,5.625c-3.568,0.776-6.131-2.693-7.916-5.255c-1.209-1.719-2.357-3.5-3.636-5.186
					c-0.27-0.271-0.505-0.54-0.876-0.402c-0.435,0.167-0.743,0.571-0.976,0.942c-1.988,3.097-3.738,6.265-5.828,9.294
					c-0.403,0.472-0.976,0.672-1.583,0.672c-0.735-0.034-1.279-0.706-1.616-1.313c-1.75-3.032-3.265-6.162-4.848-9.294
					c-0.235-0.301-0.507-0.709-0.942-0.57c-0.439,0.166-0.743,0.57-1.012,0.905c-2.391,3.033-4.377,6.265-7.005,9.162
					c-0.774,0.775-1.853,1.417-2.93,1.011c-2.325-0.979-3.233-3.537-4.714-5.322c-0.473-0.637-0.777-1.382-1.449-1.887
					c-0.607-0.202-0.946,0.54-1.381,0.876c-1.92,2.292-4.144,4.614-6.804,5.861c-3.539,1.414-7.646,0.372-10.34-2.157
					c-2.122-2.288-3.098-5.085-3.401-8.149c-0.202-3.939,0.371-7.713,1.716-11.081c1.653-4.311,4.685-8.756,8.959-11.181
					c4.008-2.427,10.305-2.629,14.317-0.068c1.75,1.078,2.794,2.896,2.491,4.983c-0.167,1.784-1.381,3.705-3.168,4.279
					c-2.527,0.607-4.272-1.181-6.564-1.381c-2.597-0.372-4.65,1.683-5.862,3.704c-1.517,2.527-2.595,5.323-2.493,8.419
					c0.17,0.876,0.473,1.817,1.381,2.225c0.539,0.267,1.211,0.167,1.719-0.07c1.713-1.445,3.197-3.231,4.546-4.982
					c1.211-1.449,2.255-3.232,3.906-4.278c0.745-0.335,1.752-0.335,2.458,0.102c1.382,0.806,2.088,2.29,3.032,3.5
					c0.607,0.776,1.044,1.854,2.054,2.226c0.542,0,0.874-0.472,1.316-0.811c2.794-3.403,5.386-6.938,8.217-10.373
					c0.811-0.91,1.886-1.886,3.197-1.583c0.811,0.27,1.485,0.908,1.956,1.684c1.311,2.086,2.459,4.278,3.772,6.4
					c0.17,0.235,0.403,0.504,0.707,0.504c0.402,0,0.638-0.403,0.908-0.64c1.988-2.458,3.301-5.254,5.692-7.479
					c0.609-0.538,1.585-0.607,2.326-0.336c1.48,0.808,2.155,2.425,3.163,3.672c2.124,3.066,3.809,6.297,6.166,9.261
					c0.238,0.203,0.508,0.437,0.876,0.337c0.842-0.404,1.143-1.381,1.581-2.121c1.012-1.921,1.687-3.975,2.123-6.13
					c0.032-0.169-0.133-0.302-0.269-0.337c-2.457-1.176-3.906-3.738-3.738-6.465c0.134-2.292,1.616-4.547,3.769-5.423
					c2.26-0.979,5.255-0.842,7.245,0.671c0.974,0.744,1.481,1.82,1.916,2.864c0.036,0.035,0.067,0.069,0.138,0.099
					c3.333-0.131,6.532-0.47,9.904-0.2c1.748,0.2,3.397,1.347,4.173,2.998c0.672,1.717,0.402,3.637,0.402,5.593
					c-0.131,2.893-0.332,5.757-0.471,8.69c0.139,0.199,0,0.505,0.104,0.738c0.034,0.437,0.199,0.81,0.505,1.08
					c0.602,0.4,1.449,0.27,2.088,0.067c1.548-0.607,3.1-1.212,4.544-2.09c0.033-0.033,0.102-0.1,0.102-0.167
					c0.036-4.718-0.102-9.463,0.742-13.978c0.238-1.516,1.583-3.029,3.132-3.299c1.954-0.474,4.041-0.27,5.454,1.076
					c0.845,0.81,1.047,1.888,1.18,2.964c0,4.548-0.335,9.026-0.27,13.609c0.034,0.738,0.204,1.512,0.876,1.918
					c0.877,0.404,1.818-0.069,2.661-0.303c1.077-0.504,2.291-0.81,3.23-1.615c-0.706-4.246-1.139-9.097,0-13.273
					c0.812-3.974,3.841-7.814,7.583-9.665c2.928-1.584,7.037-1.686,10.171-0.404c1.546,0.539,2.964,1.379,4.309,2.391
					c0.104,0.034,0.235,0.034,0.335,0c5.595-2.693,12.596-5.593,18.997-2.693c5.085,2.322,8.692,7.543,8.755,13.133
					C286.76,74.624,286.523,75.902,286.354,77.282z M275.174,78.326c0.976-1.614,1.146-4.174,0.102-5.789
					c-0.913-1.483-2.527-2.158-4.146-1.92c-3.063,0.539-5.658,2.253-8.385,3.604c-2.595,1.41-5.524,4.007-8.653,2.155
					c-1.755-1.35-2.629-3.336-2.292-5.527c-0.271-0.267-0.641-0.336-1.009-0.336c-1.449-0.033-2.865,0.81-3.637,2.089
					c-1.585,2.796-0.913,6.703-0.172,9.702c1.08,3.434,2.696,6.733,5.561,9.326c1.073,0.944,2.828,1.044,4.207,0.607
					c3.871-1.178,7.578-2.964,10.879-5.622c2.119-1.584,4.076-3.406,5.727-5.492C274.062,80.214,274.635,79.272,275.174,78.326z"/>
				<path fill="none" stroke="#FFFFFF" stroke-width="8" d="M229,62.499c-1.923,1.143-4.818,1.347-6.772,0.236
					c-1.886-1.012-3.299-2.93-3.235-5.085c-0.063-2.189,1.42-4.109,3.235-5.122c2.153-1.112,5.287-1.146,7.243,0.439
					c1.949,1.381,2.896,3.806,2.222,6.163C231.289,60.511,230.245,61.723,229,62.499z"/>
				<path fill="none" stroke="#FFFFFF" stroke-width="8" d="M116.305,58.625c-1.581,1.079-3.838,1.044-5.389-0.033
					c-1.279-0.943-2.423-2.324-3.903-2.895c-3.233-1.587-7.175-0.408-10.341,0.469c-2.595,0.774-5.085,2.155-7.071,4.177
					c-0.541,0.639-1.012,1.349-0.743,2.221c0.202,0.842,1.143,1.281,1.818,1.683c1.281,0.742,2.66,1.214,4.041,1.754
					c3.605,1.413,7.312,2.694,10.911,4.107c2.898,1.416,6.03,2.561,8.185,5.29c1.75,2.324,2.491,5.323,1.886,8.385
					c-0.573,5.457-5.153,10.206-9.799,12.833c-3.403,2.121-7.277,3.097-11.384,3.502c-3.908,0.169-7.78-0.337-11.214-1.582
					c-2.697-1.044-5.454-3.2-6.804-5.895c-1.177-2.356-1.719-5.691-0.238-8.083c1.449-2.663,4.345-3.873,7.246-3.568
					c1.476,0.235,2.996,1.111,3.566,2.556c0.808,1.417-0.065,3.404,0.743,4.782c1.444,2.663,4.68,2.493,7.372,2.327
					c3.908-0.676,7.85-2.596,9.906-6.298c0.471-0.911,0.772-2.191,0.099-3.131c-1.378-1.618-3.4-2.023-5.156-2.832
					c-4.476-1.55-8.92-3.232-13.367-4.815c-4.008-1.483-9.26-4.177-9.797-9.095c-0.813-5.187,2.422-9.562,6.634-12.258
					c5.389-3.538,11.348-5.759,17.846-6.635c5.556-0.675,11.384-0.068,15.596,3.503c1.884,1.683,2.626,4.242,1.818,6.667
					C118.361,56.907,117.385,57.951,116.305,58.625z"/>
			</g>
		</g>
	</g>
	<g>
		<g>
			<g>
				<path fill="#007DC5" d="M286.354,77.282c-0.301,1.383-0.773,2.695-1.281,3.977c-1.175,3.062-3.095,5.826-5.253,8.451
					c-2.493,2.833-5.321,5.221-8.316,7.343c-3.806,2.561-7.848,4.448-12.26,5.492c-2.998,0.639-6.401,0.671-9.164-0.574
					c-1.915-0.707-3.602-2.054-5.216-3.469c-1.651-1.516-2.898-3.266-3.977-5.084c-0.1-0.169-0.301-0.102-0.405-0.035
					c-2.964,1.348-6.029,2.391-9.09,3.367c-3.134,0.979-7.011,0.675-9.193-1.949c-0.342-0.373-0.543-0.811-0.878-1.148
					c-0.137,0-0.27,0-0.335,0.034c-3.001,1.214-5.998,2.459-9.195,3.131c-2.428,0.539-4.954,0.069-6.874-1.211
					c-0.974-0.806-1.853-1.751-2.224-2.864c-0.67-1.851-0.536-3.905-0.503-5.858c0.103-3.232,0.439-6.431,0.539-9.699
					c-0.036-0.473-0.235-0.978-0.742-1.146c-0.673-0.236-1.479-0.102-2.189-0.034c-0.469,0.066-0.977,0.066-1.447,0.167
					c-0.065,0-0.1,0.066-0.134,0.136c-1.451,5.287-3.065,10.54-5.825,15.289c-1.381,2.326-3.673,5.152-6.469,5.625
					c-3.568,0.776-6.131-2.693-7.916-5.255c-1.209-1.719-2.357-3.5-3.636-5.186c-0.27-0.271-0.505-0.54-0.876-0.402
					c-0.435,0.167-0.743,0.571-0.976,0.942c-1.988,3.097-3.738,6.265-5.828,9.294c-0.403,0.472-0.976,0.672-1.583,0.672
					c-0.735-0.034-1.279-0.706-1.616-1.313c-1.75-3.032-3.265-6.162-4.848-9.294c-0.235-0.301-0.507-0.709-0.942-0.57
					c-0.439,0.166-0.743,0.57-1.012,0.905c-2.391,3.033-4.377,6.265-7.005,9.162c-0.774,0.775-1.853,1.417-2.93,1.011
					c-2.325-0.979-3.233-3.537-4.714-5.322c-0.473-0.637-0.777-1.382-1.449-1.887c-0.607-0.202-0.946,0.54-1.381,0.876
					c-1.92,2.292-4.144,4.614-6.804,5.861c-3.539,1.414-7.646,0.372-10.34-2.157c-2.122-2.288-3.098-5.085-3.401-8.149
					c-0.202-3.939,0.371-7.713,1.716-11.081c1.653-4.311,4.685-8.756,8.959-11.181c4.008-2.427,10.305-2.629,14.317-0.068
					c1.75,1.078,2.794,2.896,2.491,4.983c-0.167,1.784-1.381,3.705-3.168,4.279c-2.527,0.607-4.272-1.181-6.564-1.381
					c-2.597-0.372-4.65,1.683-5.862,3.704c-1.517,2.527-2.595,5.323-2.493,8.419c0.17,0.876,0.473,1.817,1.381,2.225
					c0.539,0.267,1.211,0.167,1.719-0.07c1.713-1.445,3.197-3.231,4.546-4.982c1.211-1.449,2.255-3.232,3.906-4.278
					c0.745-0.335,1.752-0.335,2.458,0.102c1.382,0.806,2.088,2.29,3.032,3.5c0.607,0.776,1.044,1.854,2.054,2.226
					c0.542,0,0.874-0.472,1.316-0.811c2.794-3.403,5.386-6.938,8.217-10.373c0.811-0.91,1.886-1.886,3.197-1.583
					c0.811,0.27,1.485,0.908,1.956,1.684c1.311,2.086,2.459,4.278,3.772,6.4c0.17,0.235,0.403,0.504,0.707,0.504
					c0.402,0,0.638-0.403,0.908-0.64c1.988-2.458,3.301-5.254,5.692-7.479c0.609-0.538,1.585-0.607,2.326-0.336
					c1.48,0.808,2.155,2.425,3.163,3.672c2.124,3.066,3.809,6.297,6.166,9.261c0.238,0.203,0.508,0.437,0.876,0.337
					c0.842-0.404,1.143-1.381,1.581-2.121c1.012-1.921,1.687-3.975,2.123-6.13c0.032-0.169-0.133-0.302-0.269-0.337
					c-2.457-1.176-3.906-3.738-3.738-6.465c0.134-2.292,1.616-4.547,3.769-5.423c2.26-0.979,5.255-0.842,7.245,0.671
					c0.974,0.744,1.481,1.82,1.916,2.864c0.036,0.035,0.067,0.069,0.138,0.099c3.333-0.131,6.532-0.47,9.904-0.2
					c1.748,0.2,3.397,1.347,4.173,2.998c0.672,1.717,0.402,3.637,0.402,5.593c-0.131,2.893-0.332,5.757-0.471,8.69
					c0.139,0.199,0,0.505,0.104,0.738c0.034,0.437,0.199,0.81,0.505,1.08c0.602,0.4,1.449,0.27,2.088,0.067
					c1.548-0.607,3.1-1.212,4.544-2.09c0.033-0.033,0.102-0.1,0.102-0.167c0.036-4.718-0.102-9.463,0.742-13.978
					c0.238-1.516,1.583-3.029,3.132-3.299c1.954-0.474,4.041-0.27,5.454,1.076c0.845,0.81,1.047,1.888,1.18,2.964
					c0,4.548-0.335,9.026-0.27,13.609c0.034,0.738,0.204,1.512,0.876,1.918c0.877,0.404,1.818-0.069,2.661-0.303
					c1.077-0.504,2.291-0.81,3.23-1.615c-0.706-4.246-1.139-9.097,0-13.273c0.812-3.974,3.841-7.814,7.583-9.665
					c2.928-1.584,7.037-1.686,10.171-0.404c1.546,0.539,2.964,1.379,4.309,2.391c0.104,0.034,0.235,0.034,0.335,0
					c5.595-2.693,12.596-5.593,18.997-2.693c5.085,2.322,8.692,7.543,8.755,13.133C286.76,74.624,286.523,75.902,286.354,77.282z
					 M275.174,78.326c0.976-1.614,1.146-4.174,0.102-5.789c-0.913-1.483-2.527-2.158-4.146-1.92
					c-3.063,0.539-5.658,2.253-8.385,3.604c-2.595,1.41-5.524,4.007-8.653,2.155c-1.755-1.35-2.629-3.336-2.292-5.527
					c-0.271-0.267-0.641-0.336-1.009-0.336c-1.449-0.033-2.865,0.81-3.637,2.089c-1.585,2.796-0.913,6.703-0.172,9.702
					c1.08,3.434,2.696,6.733,5.561,9.326c1.073,0.944,2.828,1.044,4.207,0.607c3.871-1.178,7.578-2.964,10.879-5.622
					c2.119-1.584,4.076-3.406,5.727-5.492C274.062,80.214,274.635,79.272,275.174,78.326z"/>
				<path fill="#007DC5" d="M229,62.499c-1.923,1.143-4.818,1.347-6.772,0.236c-1.886-1.012-3.299-2.93-3.235-5.085
					c-0.063-2.189,1.42-4.109,3.235-5.122c2.153-1.112,5.287-1.146,7.243,0.439c1.949,1.381,2.896,3.806,2.222,6.163
					C231.289,60.511,230.245,61.723,229,62.499z"/>
				<path fill="#007DC5" d="M116.305,58.625c-1.581,1.079-3.838,1.044-5.389-0.033c-1.279-0.943-2.423-2.324-3.903-2.895
					c-3.233-1.587-7.175-0.408-10.341,0.469c-2.595,0.774-5.085,2.155-7.071,4.177c-0.541,0.639-1.012,1.349-0.743,2.221
					c0.202,0.842,1.143,1.281,1.818,1.683c1.281,0.742,2.66,1.214,4.041,1.754c3.605,1.413,7.312,2.694,10.911,4.107
					c2.898,1.416,6.03,2.561,8.185,5.29c1.75,2.324,2.491,5.323,1.886,8.385c-0.573,5.457-5.153,10.206-9.799,12.833
					c-3.403,2.121-7.277,3.097-11.384,3.502c-3.908,0.169-7.78-0.337-11.214-1.582c-2.697-1.044-5.454-3.2-6.804-5.895
					c-1.177-2.356-1.719-5.691-0.238-8.083c1.449-2.663,4.345-3.873,7.246-3.568c1.476,0.235,2.996,1.111,3.566,2.556
					c0.808,1.417-0.065,3.404,0.743,4.782c1.444,2.663,4.68,2.493,7.372,2.327c3.908-0.676,7.85-2.596,9.906-6.298
					c0.471-0.911,0.772-2.191,0.099-3.131c-1.378-1.618-3.4-2.023-5.156-2.832c-4.476-1.55-8.92-3.232-13.367-4.815
					c-4.008-1.483-9.26-4.177-9.797-9.095c-0.813-5.187,2.422-9.562,6.634-12.258c5.389-3.538,11.348-5.759,17.846-6.635
					c5.556-0.675,11.384-0.068,15.596,3.503c1.884,1.683,2.626,4.242,1.818,6.667C118.361,56.907,117.385,57.951,116.305,58.625z"/>
			</g>
		</g>
	</g>
	<g>
		<path fill="#007DC5" d="M288.997,52.509c3.175,0,5.641,2.466,5.641,5.54c0,3.142-2.466,5.574-5.675,5.574
			c-3.175,0-5.707-2.432-5.707-5.574c0-3.074,2.532-5.54,5.707-5.54H288.997z M288.931,53.624c-2.434,0-4.258,1.993-4.258,4.425
			c0,2.466,1.824,4.425,4.324,4.425c2.431,0.034,4.222-1.958,4.222-4.425c0-2.432-1.791-4.425-4.256-4.425H288.931z M288.085,60.919
			h-1.283v-5.505c0.506-0.102,1.215-0.203,2.129-0.203c1.046,0,1.519,0.168,1.925,0.439c0.304,0.236,0.54,0.676,0.54,1.182
			c0,0.642-0.474,1.115-1.148,1.318v0.067c0.54,0.169,0.845,0.607,1.014,1.351c0.167,0.844,0.27,1.183,0.404,1.351h-1.385
			c-0.169-0.203-0.27-0.675-0.438-1.316c-0.102-0.608-0.44-0.878-1.148-0.878h-0.608V60.919z M288.119,57.812h0.607
			c0.709,0,1.284-0.236,1.284-0.811c0-0.507-0.373-0.844-1.183-0.844c-0.338,0-0.575,0.034-0.709,0.067V57.812z"/>
	</g>
</g>
</svg>
